<svg version="1.1" id="Layer_1" xmlns="http://www.w3.org/2000/svg" xmlns:xlink="http://www.w3.org/1999/xlink" x="0px" y="0px"
	 width="100%" viewBox="0 0 270 270" enable-background="new 0 0 270 270" xml:space="preserve">
<path fill="#000000" opacity="1.000000" stroke="none" 
	d="
M1.000000,134.000000 
	C1.000000,89.703293 1.000000,45.406593 1.000000,1.109890 
	C1.129899,1.073260 1.259796,1.004527 1.389697,1.004521 
	C91.148804,0.999954 180.907913,1.000000 271.000000,1.000000 
	C271.000000,43.020309 271.000000,85.041496 270.716888,127.818451 
	C267.199005,127.370865 269.443207,124.741829 268.936951,122.828568 
	C267.541656,117.555656 266.138092,112.284935 264.800049,106.625824 
	C261.295807,98.305962 257.407562,90.499016 254.253265,82.406021 
	C251.088120,74.285194 247.959564,66.348442 241.059189,60.476067 
	C238.811935,58.563618 236.357437,56.230148 235.411453,53.583870 
	C233.037933,46.944263 227.531570,44.095097 222.067047,40.575096 
	C220.505157,35.932144 217.253281,33.877937 212.670959,32.987564 
	C210.926041,31.847809 209.476303,30.874084 207.990768,29.549007 
	C201.660522,26.082514 195.366074,22.967369 188.896957,19.524652 
	C183.294510,17.471138 177.929413,15.499976 172.420502,14.091309 
	C167.365387,12.798680 162.155197,12.112567 156.701965,11.025135 
	C155.588623,10.647133 154.786636,10.403221 153.659836,10.084238 
	C152.894043,10.047493 152.453064,10.085818 151.702820,10.048220 
	C150.969177,9.975701 150.544830,9.979107 150.055237,9.545843 
	C149.553772,8.744097 149.120102,8.064155 148.680923,8.060575 
	C140.419586,7.993227 132.156342,7.937449 123.897362,8.089527 
	C122.875252,8.108349 121.875153,9.322300 120.633781,9.973563 
	C120.402718,9.964682 119.967926,10.122239 119.735214,10.076674 
	C119.502510,10.031110 119.044731,10.155048 118.641861,10.092226 
	C115.805824,11.010548 113.372650,11.991692 110.711578,12.974246 
	C110.483665,12.975657 110.040489,12.868977 109.870056,12.542570 
	C108.326202,12.483262 106.963531,12.885233 105.577637,12.995706 
	C96.154266,13.746852 87.306389,16.353060 79.147255,21.151045 
	C73.071350,24.723989 67.049080,28.388145 60.650249,32.108810 
	C56.157352,35.463898 52.017128,38.721855 47.572792,42.078293 
	C45.829876,43.726761 44.391071,45.276749 42.595818,46.889030 
	C38.548195,51.632149 34.857018,56.312965 31.065250,61.267853 
	C30.724169,62.053562 30.483673,62.565205 29.845478,63.133034 
	C28.834305,63.311771 27.849651,63.236248 27.662788,63.586433 
	C24.649263,69.233833 21.526089,74.838165 18.851252,80.647255 
	C14.765198,89.521194 10.573147,98.389084 7.258947,107.560516 
	C5.080849,113.587990 4.100730,120.104736 3.135726,126.485794 
	C2.762475,128.953903 4.824263,131.776001 1.743171,133.959457 
	C1.497212,133.995712 1.000000,134.000000 1.000000,134.000000 
z"/>
<path fill="#000000" opacity="1.000000" stroke="none" 
	d="
M83.000000,271.000000 
	C55.731102,271.000000 28.462206,271.000000 1.000000,271.000000 
	C1.000000,236.646011 1.000000,202.291672 1.345565,167.169937 
	C2.127638,167.545807 2.537578,168.700089 3.006200,169.830017 
	C3.974488,172.164688 4.974032,174.486420 6.320426,176.984802 
	C7.478789,180.096832 8.277447,183.037521 8.871311,186.080612 
	C8.666516,186.182999 8.710197,186.638840 8.597645,186.983887 
	C11.835842,199.316986 17.161669,210.336182 24.739067,220.628754 
	C26.434855,223.075348 28.046619,225.185303 29.805817,227.611023 
	C30.937094,229.165482 31.920937,230.404160 32.992203,231.910782 
	C33.510010,232.522308 33.940392,232.865906 34.450012,233.554047 
	C37.891747,237.342056 41.218540,240.821350 44.626923,244.218796 
	C47.934372,247.515656 50.831749,251.439331 55.996193,252.371140 
	C56.309166,252.760254 56.598392,252.895950 57.006214,253.343536 
	C58.063549,254.147415 59.002285,254.639420 59.947403,255.090744 
	C59.953781,255.050049 59.872074,255.060608 60.002197,255.364563 
	C61.060501,256.166168 61.988674,256.663818 62.925041,257.115875 
	C62.933231,257.070282 62.841679,257.084442 63.002205,257.395447 
	C65.108490,258.804260 67.054245,259.902130 69.097763,261.352295 
	C72.463684,263.136414 75.731842,264.568207 79.065598,266.319946 
	C79.754135,266.759918 80.377068,266.879944 81.065628,267.319397 
	C81.830193,268.065338 82.529129,268.491882 83.177200,269.267700 
	C83.084213,270.077972 83.042107,270.538971 83.000000,271.000000 
z"/>
<path fill="#000000" opacity="1.000000" stroke="none" 
	d="
M271.000000,169.000000 
	C271.000000,202.918976 271.000000,236.837952 271.000000,271.000000 
	C243.979599,271.000000 216.958450,271.000000 189.585175,270.751465 
	C189.217590,270.155884 189.202148,269.808838 189.420441,269.171844 
	C191.795868,267.605255 193.937561,266.328583 196.042526,265.036560 
	C196.005798,265.021149 196.038010,265.093994 196.355133,265.049438 
	C197.141907,264.686615 197.611542,264.368347 198.044449,264.035431 
	C198.007721,264.020782 198.038269,264.093750 198.353790,264.049774 
	C199.086258,263.942902 199.503220,263.880005 200.168091,263.867157 
	C200.579803,263.877258 200.743622,263.837341 201.270813,263.868530 
	C207.407867,259.867065 213.181519,255.794540 219.281494,251.687653 
	C220.420105,250.605789 221.232346,249.558258 222.006836,248.473679 
	C221.969070,248.436630 222.043777,248.495697 222.427582,248.563522 
	C224.967102,246.452728 227.122818,244.274094 229.494965,242.039871 
	C230.004990,241.803207 230.113556,241.544510 230.384460,241.111237 
	C234.253235,237.245026 238.026489,233.678177 241.249237,229.668839 
	C251.297836,217.167557 259.209167,203.450714 264.036011,187.856720 
	C264.129822,187.685486 264.050629,187.303070 264.283203,187.142502 
	C264.369690,186.617142 264.223572,186.252335 264.066742,185.932953 
	C264.056000,185.978394 264.135742,185.929840 264.059753,185.693359 
	C263.983765,185.456894 263.740204,185.023926 263.772156,184.635651 
	C264.104218,182.529816 264.404358,180.812271 264.830627,178.780945 
	C265.014557,178.020584 265.072418,177.574020 265.368774,177.069672 
	C265.607300,177.011871 266.070282,176.848953 266.466919,176.913239 
	C267.576721,174.919128 268.183685,172.814041 269.057587,170.826294 
	C269.386749,170.077576 270.334320,169.600769 271.000000,169.000000 
z"/>
<path fill="#C6C6C6" opacity="1.000000" stroke="none" 
	d="
M264.737823,107.013336 
	C266.138092,112.284935 267.541656,117.555656 268.936951,122.828568 
	C269.443207,124.741829 267.199005,127.370865 270.716888,128.287109 
	C271.000000,128.444443 271.000000,128.888901 270.752808,129.878876 
	C269.697327,131.653366 268.889008,132.882324 268.028076,133.785004 
	C267.151489,132.879974 266.327545,132.301224 265.503601,131.722488 
	C265.349030,132.471085 265.194489,133.219681 264.678772,134.015991 
	C263.821686,135.341705 262.689301,136.773956 262.954315,137.867569 
	C263.632446,140.665848 264.932526,143.313400 265.721466,146.220215 
	C265.306427,147.274384 265.153839,148.129578 265.000946,149.398499 
	C264.792664,151.400909 265.173523,153.566025 264.277588,154.481216 
	C259.730896,159.125549 263.575073,160.402466 266.955475,162.332092 
	C266.959290,163.124680 266.971252,163.577530 266.982758,164.265198 
	C266.982300,164.499985 266.983124,164.969574 266.856384,165.266083 
	C266.153687,168.054871 265.577698,170.547165 265.008911,173.022797 
	C265.016052,173.006134 265.037750,173.031525 264.699768,173.015472 
	C263.910980,172.991791 263.460175,172.984146 262.965302,172.608765 
	C262.353821,170.797150 261.786438,169.353256 260.896912,167.089584 
	C258.931702,169.902328 257.577362,171.840805 256.640381,173.181870 
	C257.600708,175.500809 258.344879,177.297867 259.084167,179.064972 
	C259.079224,179.035034 259.054718,179.090256 258.660187,179.061310 
	C257.226288,179.496017 256.186951,179.959671 255.147583,180.423340 
	C255.787521,181.275116 256.427460,182.126892 257.072968,183.318069 
	C257.067352,184.109879 257.056183,184.562302 256.733124,185.044098 
	C256.633179,186.046982 256.845093,187.020477 256.954407,188.256805 
	C256.583618,189.014923 256.315491,189.510223 255.867096,190.089691 
	C255.828018,190.430023 255.969162,190.686218 256.482422,190.931122 
	C257.600922,190.937897 258.347351,190.955963 259.046967,191.229034 
	C258.965790,191.653473 258.931427,191.822876 258.568542,192.051605 
	C256.307098,193.042465 254.624344,196.918640 252.247147,192.620010 
	C251.168335,193.409744 249.750977,193.979797 249.070709,195.028152 
	C246.458969,199.053070 243.917007,203.143738 241.685699,207.386948 
	C240.446487,209.743484 239.872940,212.450043 238.839035,215.319168 
	C238.120255,217.426315 237.561829,219.213150 236.780792,220.916870 
	C236.040588,220.879761 235.522964,220.925766 234.640305,221.049194 
	C233.030655,223.004349 231.671982,224.818741 230.581635,226.782135 
	C229.856674,228.087555 229.515045,229.605835 228.677139,231.003082 
	C224.424850,230.479904 222.385300,232.749207 221.005341,236.242737 
	C221.002396,236.665451 221.002182,236.834549 220.755737,237.009460 
	C220.509521,237.015289 220.016968,237.019089 219.656982,236.858124 
	C217.197998,236.464767 215.098999,236.232391 213.050476,235.662994 
	C218.005096,229.438446 223.021469,223.638580 227.736282,217.603165 
	C228.950546,216.048798 229.216125,213.753326 229.977661,211.463379 
	C230.279175,210.695984 230.471481,210.226028 230.768936,209.836380 
	C253.272827,180.360229 261.057983,147.409866 254.473618,111.032837 
	C256.664642,114.119492 258.506134,117.153778 260.788605,120.914612 
	C260.688934,119.110878 260.055206,117.417931 260.641479,116.606232 
	C263.613892,112.491089 260.534607,111.051239 257.891449,109.041985 
	C256.793701,108.207489 256.346069,106.517715 255.216400,104.540649 
	C258.336914,105.207275 260.163635,105.597511 261.995117,105.993729 
	C261.999878,105.999710 262.011414,106.008873 262.187714,106.261627 
	C263.155273,106.680702 263.946564,106.847015 264.737823,107.013336 
M263.242310,145.177795 
	C263.411865,145.121429 263.581390,145.065063 263.750946,145.008713 
	C263.580322,144.953812 263.409729,144.898911 263.242310,145.177795 
M263.806671,116.249413 
	C263.861145,116.413620 263.915649,116.577827 263.970123,116.742043 
	C264.023529,116.576180 264.076904,116.410309 263.806671,116.249413 
z"/>
<path fill="#CBCBCB" opacity="1.000000" stroke="none" 
	d="
M151.000000,271.000000 
	C141.645767,271.000000 132.291550,271.000000 122.426743,270.638489 
	C120.651581,269.667755 119.433838,268.905548 118.107101,268.499084 
	C117.100548,268.190704 115.931282,268.459320 114.875938,268.255890 
	C111.240891,267.554932 107.624069,266.759460 103.679657,266.133911 
	C102.246216,266.503784 101.133423,266.739746 99.979492,266.638367 
	C98.959152,265.533722 97.979950,264.766418 96.775307,264.106201 
	C96.268875,264.417786 96.082520,264.687714 96.010307,265.316315 
	C96.342285,266.073059 96.654747,266.536469 96.970947,267.399933 
	C96.983124,268.866669 96.991562,269.933319 97.000000,271.000000 
	C95.285645,271.000000 93.571281,271.000000 91.440506,270.682129 
	C91.013184,269.940460 91.002281,269.516602 90.920242,268.897125 
	C90.563866,268.804443 90.278618,268.907410 89.795128,269.027039 
	C89.596886,269.043640 89.199013,269.044220 88.907089,269.024963 
	C88.420135,269.007935 88.225105,269.010193 88.002335,268.773376 
	C87.974602,268.534302 87.956070,268.053253 88.196190,267.924866 
	C88.747498,267.409302 89.058685,267.022156 89.369873,266.634979 
	C89.157738,266.498871 88.945595,266.362732 88.733452,266.226624 
	C88.474770,266.833740 88.216087,267.440857 87.768417,268.052002 
	C87.579437,268.056030 87.201408,268.050385 86.909996,268.030609 
	C86.423859,268.010529 86.229141,268.010223 85.851173,267.743744 
	C84.766586,267.017303 83.865250,266.556976 83.103500,265.841980 
	C83.377716,265.006378 83.512344,264.425415 83.646973,263.844482 
	C81.523064,263.551605 79.399147,263.258759 76.922058,262.969360 
	C75.346436,262.370361 74.123985,261.767944 73.022377,260.871155 
	C74.378807,256.252991 72.260193,253.380508 68.863113,250.687469 
	C67.625694,248.517563 66.525475,246.661987 65.533607,244.989166 
	C63.545952,245.711319 61.773281,246.355362 59.701988,246.978271 
	C58.933296,246.638107 58.463234,246.319061 58.317780,245.957306 
	C62.915112,243.825592 57.878281,241.255066 59.043427,238.684113 
	C59.564899,238.039139 60.427006,237.387207 60.466129,237.433334 
	C64.396927,242.067780 72.737656,242.515640 72.453178,251.854111 
	C76.933235,247.121582 80.453392,249.130295 84.262741,251.034393 
	C89.535217,253.669861 94.888557,256.371124 100.510742,257.990814 
	C103.690788,258.906952 107.562408,262.204407 111.334732,258.002045 
	C112.110931,258.001678 112.554466,258.001434 113.055405,258.357788 
	C115.241203,259.806671 117.286285,261.574829 119.515465,261.849670 
	C124.070107,262.411163 128.724060,262.255890 133.336548,262.239349 
	C141.253433,262.210968 149.231735,262.622345 157.063492,261.756653 
	C161.826065,261.230164 166.362152,258.654907 171.412537,256.990997 
	C175.890686,256.325745 179.956299,255.669479 184.060028,255.381226 
	C184.750046,257.547028 185.401947,259.344849 186.543182,262.492126 
	C183.651611,261.518555 182.003159,260.963531 181.437622,260.773132 
	C177.201904,262.071259 173.503448,263.204742 170.634277,264.084106 
	C168.845062,265.639221 167.481827,266.824097 165.790192,268.294434 
	C165.820786,268.688934 165.910385,269.844452 166.000000,271.000000 
	C165.555557,271.000000 165.111099,271.000000 164.335144,270.591431 
	C164.003647,268.627747 164.003647,267.072601 164.003647,264.783142 
	C160.111465,266.500244 157.283829,270.659271 153.810501,265.993195 
	C152.717606,267.940125 151.858810,269.470062 151.000000,271.000000 
z"/>
<path fill="#D9D9D9" opacity="1.000000" stroke="none" 
	d="
M166.463165,271.000000 
	C165.910385,269.844452 165.820786,268.688934 165.790192,268.294434 
	C167.481827,266.824097 168.845062,265.639221 170.634277,264.084106 
	C173.503448,263.204742 177.201904,262.071259 181.437622,260.773132 
	C182.003159,260.963531 183.651611,261.518555 186.543182,262.492126 
	C185.401947,259.344849 184.750046,257.547028 184.349731,255.254669 
	C185.394485,254.514297 186.187637,254.268478 187.162018,254.346848 
	C189.699326,255.413422 192.055374,256.155823 194.698792,256.988800 
	C194.919067,254.738159 195.060287,253.295273 195.176956,252.103104 
	C196.748566,252.229248 198.248505,252.758804 199.438995,252.361374 
	C202.044205,251.491669 204.492401,250.151611 207.301971,248.982269 
	C208.066162,248.642059 208.533081,248.323212 209.276978,247.810577 
	C210.703461,247.078445 211.852951,246.540146 213.297913,245.982574 
	C214.704529,245.983307 215.815704,246.003281 217.133804,246.177856 
	C217.560623,245.554855 217.780502,244.777267 218.000244,243.749969 
	C218.000137,243.500244 218.000534,243.000504 218.176453,242.918655 
	C218.236420,242.556641 218.120483,242.276489 218.137024,241.685440 
	C218.852020,239.922745 219.434494,238.470917 220.016968,237.019089 
	C220.016968,237.019089 220.509521,237.015289 220.926605,236.921234 
	C221.408524,236.717850 221.553467,236.547028 221.524704,236.509537 
	C221.377075,236.317184 221.184753,236.159149 221.008057,235.989105 
	C222.385300,232.749207 224.424850,230.479904 228.674286,231.240341 
	C228.996140,231.503342 228.992798,231.978577 228.849716,232.309509 
	C228.468765,234.760300 228.230896,236.880157 227.988068,239.359467 
	C228.414902,240.511108 228.846725,241.303284 229.278534,242.095474 
	C227.122818,244.274094 224.967102,246.452728 222.401932,248.176575 
	C222.158188,246.625092 222.323914,245.528381 222.632339,243.487122 
	C219.460876,245.752762 219.620575,247.132080 222.044586,248.510742 
	C221.232346,249.558258 220.420105,250.605789 219.044067,251.460083 
	C215.253983,252.819351 212.027679,254.371826 208.466583,255.946320 
	C207.406998,256.622437 206.682175,257.276489 205.976807,257.963440 
	C205.996262,257.996338 205.932297,257.954559 205.557251,257.964294 
	C203.064331,259.395752 200.946472,260.817505 198.601837,262.379395 
	C198.262787,263.044250 198.150528,263.569000 198.038269,264.093750 
	C198.038269,264.093750 198.007721,264.020782 197.773163,263.989044 
	C197.038406,264.336212 196.538208,264.715118 196.038025,265.093994 
	C196.038010,265.093994 196.005798,265.021149 195.711060,264.947693 
	C193.282318,265.578522 191.148346,266.282806 188.688293,266.977905 
	C188.145721,266.988983 187.929199,267.009308 187.556946,267.157776 
	C187.221527,267.492096 187.092316,267.726135 186.692017,267.978699 
	C186.156906,267.989319 185.943344,268.009216 185.469803,268.059448 
	C184.815598,268.385559 184.421402,268.681366 183.695786,268.973999 
	C183.144623,268.993927 182.924866,269.016998 182.580948,269.049225 
	C182.456772,269.058350 182.210251,269.023071 181.832275,269.010559 
	C180.636200,269.665375 179.818100,270.332672 179.000000,271.000000 
	C174.975449,271.000000 170.950912,271.000000 166.463165,271.000000 
M200.489883,257.782471 
	C200.766739,257.431427 201.043594,257.080383 201.320450,256.729340 
	C201.105881,256.620850 200.891312,256.512360 200.676743,256.403870 
	C200.450958,256.935913 200.225189,257.467957 199.701874,258.101685 
	C199.801254,258.067810 199.900635,258.033905 200.489883,257.782471 
M222.595718,241.911835 
	C223.263275,242.008698 223.930817,242.105560 224.598389,242.202423 
	C224.539185,241.625351 224.479996,241.048294 224.420792,240.471222 
	C223.729324,240.751617 223.037857,241.032028 222.595718,241.911835 
M185.823059,265.217560 
	C185.884521,265.393982 185.945969,265.570404 186.007446,265.746826 
	C186.065369,265.567932 186.123291,265.389008 185.823059,265.217560 
M217.803940,249.705261 
	C217.967987,249.589279 218.132034,249.473312 218.296066,249.357346 
	C218.066223,249.380737 217.836395,249.404129 217.803940,249.705261 
z"/>
<path fill="#FFFFFF" opacity="1.000000" stroke="none" 
	d="
M5.960724,176.813461 
	C4.974032,174.486420 3.974488,172.164688 3.006200,169.830017 
	C2.537578,168.700089 2.127638,167.545807 1.345565,166.701279 
	C1.000000,156.312439 1.000000,145.624878 1.000000,134.468658 
	C1.000000,134.000000 1.497212,133.995712 1.747764,134.373901 
	C2.655500,138.833084 3.312684,142.914108 3.715854,147.120239 
	C3.631279,147.831924 3.800718,148.418472 4.013765,149.434464 
	C4.403303,152.571136 4.749232,155.278366 5.059845,158.389160 
	C5.074731,159.869797 5.124932,160.946884 5.058762,162.274109 
	C5.272523,163.359665 5.602657,164.195068 5.956187,165.406616 
	C6.315958,167.871002 6.652331,169.959244 6.893525,172.306915 
	C6.519139,173.982056 6.239933,175.397766 5.960724,176.813461 
z"/>
<path fill="#FFFFFF" opacity="1.000000" stroke="none" 
	d="
M266.983215,164.030396 
	C266.971252,163.577530 266.959290,163.124680 267.265564,162.126221 
	C268.010071,159.337219 268.436371,157.093811 268.899719,154.503311 
	C269.624542,153.437485 270.312256,152.718735 271.000000,152.000000 
	C271.000000,157.354935 271.000000,162.709854 271.000000,168.532394 
	C270.334320,169.600769 269.386749,170.077576 269.057587,170.826294 
	C268.183685,172.814041 267.576721,174.919128 266.444794,176.556824 
	C265.684570,175.103882 265.343140,174.071655 265.001709,173.039444 
	C265.577698,170.547165 266.153687,168.054871 267.040649,165.194275 
	C267.228821,164.560776 267.106018,164.295593 266.983215,164.030396 
z"/>
<path fill="#D4D4D4" opacity="1.000000" stroke="none" 
	d="
M104.000305,266.000000 
	C107.624069,266.759460 111.240891,267.554932 114.875938,268.255890 
	C115.931282,268.459320 117.100548,268.190704 118.107101,268.499084 
	C119.433838,268.905548 120.651581,269.667755 121.958084,270.638489 
	C116.645073,271.000000 111.290138,271.000000 105.442978,270.708984 
	C103.289505,269.755798 101.628250,269.093658 100.750587,268.743835 
	C101.626724,268.004089 102.813515,267.002045 104.000305,266.000000 
z"/>
<path fill="#B6B6B6" opacity="1.000000" stroke="none" 
	d="
M271.000000,151.545898 
	C270.312256,152.718735 269.624542,153.437485 268.655060,154.306488 
	C267.249298,152.632767 266.125275,150.808762 265.001221,148.984756 
	C265.153839,148.129578 265.306427,147.274384 265.777344,146.514206 
	C266.191101,146.740555 266.261902,146.915985 266.390564,146.987869 
	C266.478424,147.036972 266.764679,146.926132 266.762939,146.912796 
	C266.200043,142.596466 265.619812,138.282394 265.039917,133.968277 
	C265.194489,133.219681 265.349030,132.471085 265.503601,131.722488 
	C266.327545,132.301224 267.151489,132.879974 267.998901,134.198029 
	C268.283020,137.276276 268.543701,139.615219 269.205170,141.965790 
	C269.872406,141.955414 270.138824,141.933380 270.571014,141.819061 
	C270.736755,141.726761 271.000000,142.000000 271.000000,142.000000 
	C271.000000,145.030594 271.000000,148.061188 271.000000,151.545898 
z"/>
<path fill="#D9D9D9" opacity="1.000000" stroke="none" 
	d="
M151.463181,271.000000 
	C151.858810,269.470062 152.717606,267.940125 153.810501,265.993195 
	C157.283829,270.659271 160.111465,266.500244 164.003647,264.783142 
	C164.003647,267.072601 164.003647,268.627747 164.001831,270.591431 
	C159.975449,271.000000 155.950912,271.000000 151.463181,271.000000 
z"/>
<path fill="#DADADA" opacity="1.000000" stroke="none" 
	d="
M103.679657,266.133911 
	C102.813515,267.002045 101.626724,268.004089 100.750587,268.743835 
	C101.628250,269.093658 103.289505,269.755798 104.975372,270.708984 
	C102.629440,271.000000 100.258888,271.000000 97.444168,271.000000 
	C96.991562,269.933319 96.983124,268.866669 97.353073,267.399902 
	C98.494514,266.991821 99.257576,266.983795 100.020630,266.975739 
	C101.133423,266.739746 102.246216,266.503784 103.679657,266.133911 
z"/>
<path fill="#FFFFFF" opacity="1.000000" stroke="none" 
	d="
M268.804352,141.954147 
	C268.543701,139.615219 268.283020,137.276276 268.051514,134.524323 
	C268.889008,132.882324 269.697327,131.653366 270.752808,130.212204 
	C271.000000,133.692902 271.000000,137.385818 271.000000,141.539368 
	C271.000000,142.000000 270.736755,141.726761 270.459534,141.452988 
	C270.027374,140.024521 269.872498,138.869843 269.717590,137.715149 
	C269.539093,137.723160 269.360565,137.731155 269.182037,137.739166 
	C269.056152,139.144165 268.930237,140.549149 268.804352,141.954147 
z"/>
<path fill="#FFFFFF" opacity="1.000000" stroke="none" 
	d="
M182.210251,269.023071 
	C182.210251,269.023071 182.456772,269.058350 182.737579,269.249268 
	C183.354645,269.285858 183.690933,269.131531 184.027206,268.977173 
	C184.421402,268.681366 184.815598,268.385559 185.630249,268.294220 
	C186.372940,268.673523 186.695190,268.848358 186.998138,269.002014 
	C186.978821,268.980804 186.938126,268.940399 186.950470,269.281311 
	C187.308533,270.081482 187.654266,270.540741 188.000000,271.000000 
	C186.285645,271.000000 184.571289,271.000000 182.451355,270.668488 
	C182.100601,269.899017 182.155426,269.461029 182.210251,269.023071 
z"/>
<path fill="#BABABA" opacity="1.000000" stroke="none" 
	d="
M86.034416,268.009888 
	C86.229141,268.010223 86.423859,268.010529 86.815544,268.407227 
	C87.008331,269.535736 87.004166,270.267883 87.000000,271.000000 
	C85.933479,271.000000 84.866966,271.000000 83.400223,271.000000 
	C83.042107,270.538971 83.084213,270.077972 83.501747,269.235352 
	C84.596252,268.572449 85.315331,268.291168 86.034416,268.009888 
z"/>
<path fill="#FFFFFF" opacity="1.000000" stroke="none" 
	d="
M87.399994,271.000000 
	C87.004166,270.267883 87.008331,269.535736 87.106956,268.427002 
	C87.201408,268.050385 87.579437,268.056030 87.789032,268.028870 
	C87.998627,268.001709 87.956070,268.053253 87.956070,268.053253 
	C87.956070,268.053253 87.974602,268.534302 88.061127,269.002075 
	C88.498108,269.328003 88.848564,269.186096 89.199013,269.044220 
	C89.199013,269.044220 89.596886,269.043640 90.043320,269.063660 
	C90.656967,269.086700 90.824173,269.089752 90.991371,269.092773 
	C91.002281,269.516602 91.013184,269.940460 91.012039,270.682129 
	C89.933327,271.000000 88.866661,271.000000 87.399994,271.000000 
z"/>
<path fill="#BFBFBF" opacity="1.000000" stroke="none" 
	d="
M181.832275,269.010559 
	C182.155426,269.461029 182.100601,269.899017 182.022888,270.668488 
	C181.250000,271.000000 180.500000,271.000000 179.375000,271.000000 
	C179.818100,270.332672 180.636200,269.665375 181.832275,269.010559 
z"/>
<path fill="#808080" opacity="1.000000" stroke="none" 
	d="
M188.250000,271.000000 
	C187.654266,270.540741 187.308533,270.081482 187.340942,269.313721 
	C188.208313,269.157410 188.697510,269.309570 189.186707,269.461761 
	C189.202148,269.808838 189.217590,270.155884 189.116516,270.751465 
	C189.000000,271.000000 188.500000,271.000000 188.250000,271.000000 
z"/>
<path fill="#BFBFBF" opacity="1.000000" stroke="none" 
	d="
M5.932792,165.030487 
	C5.602657,164.195068 5.272523,163.359665 5.421733,162.251801 
	C6.575438,161.266968 7.249800,160.554565 7.924160,159.842163 
	C6.981160,159.223312 6.038159,158.604462 5.095160,157.985611 
	C4.749232,155.278366 4.403303,152.571136 4.260378,149.298187 
	C4.298877,148.153366 4.134372,147.574234 3.969868,146.995117 
	C3.312684,142.914108 2.655500,138.833084 1.993723,134.337646 
	C4.824263,131.776001 2.762475,128.953903 3.135726,126.485794 
	C4.100730,120.104736 5.080849,113.587990 7.258947,107.560516 
	C10.573147,98.389084 14.765198,89.521194 18.851252,80.647255 
	C21.526089,74.838165 24.649263,69.233833 27.662788,63.586433 
	C27.849651,63.236248 28.834305,63.311771 30.219688,63.116699 
	C32.163067,62.873558 33.334538,62.702942 34.506008,62.532330 
	C34.516689,62.197964 34.527367,61.863598 34.538048,61.529232 
	C33.413979,61.350750 32.289909,61.172264 31.165840,60.993782 
	C34.857018,56.312965 38.548195,51.632149 42.757130,47.159603 
	C43.842049,47.595554 44.409210,47.823235 44.826981,48.350815 
	C44.168835,49.850845 43.660080,51.050972 43.151325,52.251095 
	C43.553577,52.409588 43.955833,52.568077 44.358086,52.726566 
	C45.247742,49.436806 51.062164,49.063080 49.123394,43.772430 
	C48.777691,42.998795 48.327297,42.489304 47.876904,41.979813 
	C52.017128,38.721855 56.157352,35.463898 60.641022,32.428211 
	C60.994896,33.076378 61.005318,33.502274 60.753525,34.049301 
	C60.219158,34.444611 59.947006,34.718788 59.433380,34.999779 
	C58.793236,35.244259 58.394569,35.481930 57.753166,35.945244 
	C57.334019,36.783791 57.157608,37.396690 56.993431,38.006603 
	C57.005665,38.003616 57.000294,37.979015 56.797501,38.056190 
	C56.730961,38.428799 56.867210,38.724232 57.133850,39.297607 
	C58.170723,40.381824 59.077202,41.188103 59.822491,42.286148 
	C59.081993,43.170544 58.550575,43.820850 57.916363,44.347328 
	C43.761250,56.098034 32.886940,70.435509 26.265841,87.517220 
	C22.054977,98.380798 19.529072,109.897491 15.858393,121.108841 
	C14.260534,121.843765 13.051885,122.591164 11.843235,123.338554 
	C11.980216,123.731697 12.117196,124.124832 12.254177,124.517975 
	C13.487568,124.684654 14.720959,124.851341 16.169016,125.275642 
	C16.206163,128.014542 16.028643,130.495819 15.475402,132.985703 
	C8.335498,133.987991 13.912290,136.687241 14.358604,138.846115 
	C13.399544,139.555634 12.389872,140.302582 10.546031,141.666641 
	C13.058071,141.361938 14.458549,141.192078 15.899668,141.417786 
	C15.940264,142.873001 15.940221,143.932602 15.577152,145.039139 
	C10.017260,147.098053 12.847653,152.776871 10.304543,156.147552 
	C9.691575,156.960007 10.855814,159.871017 11.987456,161.086258 
	C14.437278,163.717041 15.199135,167.861938 12.757899,170.085205 
	C11.998473,170.445755 11.502155,170.707108 11.006111,170.558319 
	C11.461352,166.314621 9.907485,164.472580 5.932792,165.030487 
M53.559410,40.102890 
	C53.501396,40.471996 53.443382,40.841099 53.385368,41.210205 
	C53.627968,40.793583 53.870567,40.376961 54.359917,39.850388 
	C54.255306,39.856533 54.150700,39.862679 53.559410,40.102890 
M5.713148,133.453125 
	C5.601230,134.033340 5.489311,134.613541 5.377391,135.193756 
	C5.788257,135.198441 6.199123,135.203125 6.609991,135.207794 
	C6.512029,134.625519 6.414067,134.043259 5.713148,133.453125 
M9.570331,147.297806 
	C9.296208,147.010391 9.022085,146.722977 8.747965,146.435562 
	C8.629135,146.549408 8.400609,146.755798 8.407312,146.763748 
	C8.663169,147.067032 8.940595,147.352112 9.570331,147.297806 
z"/>
<path fill="#BEBEBE" opacity="1.000000" stroke="none" 
	d="
M264.800049,106.625824 
	C263.946564,106.847015 263.155273,106.680702 262.328461,106.203300 
	C262.192047,105.924057 262.091187,105.955902 261.990326,105.987747 
	C260.163635,105.597511 258.336914,105.207275 255.216400,104.540649 
	C256.346069,106.517715 256.793701,108.207489 257.891449,109.041985 
	C260.534607,111.051239 263.613892,112.491089 260.641479,116.606232 
	C260.055206,117.417931 260.688934,119.110878 260.788605,120.914612 
	C258.506134,117.153778 256.664642,114.119492 254.416046,110.640610 
	C250.075806,93.312950 243.617081,77.487259 232.811539,63.851791 
	C226.738861,56.188713 219.614212,49.359295 212.974106,41.739304 
	C212.988403,40.217300 212.992081,39.110294 212.997879,38.001648 
	C213.000000,38.000000 213.003265,37.995701 213.249908,37.998276 
	C213.496567,38.000847 213.989883,38.003975 214.340424,38.067234 
	C217.162750,39.067806 219.634537,40.005116 222.106339,40.942425 
	C227.531570,44.095097 233.037933,46.944263 235.411453,53.583870 
	C236.357437,56.230148 238.811935,58.563618 241.059189,60.476067 
	C247.959564,66.348442 251.088120,74.285194 254.253265,82.406021 
	C257.407562,90.499016 261.295807,98.305962 264.800049,106.625824 
z"/>
<path fill="#BABABA" opacity="1.000000" stroke="none" 
	d="
M212.995758,38.003288 
	C212.992081,39.110294 212.988403,40.217300 212.628479,41.673393 
	C211.830383,41.807384 211.324265,41.670143 210.955902,41.366035 
	C190.408127,24.402668 166.541306,16.081705 140.176819,15.202085 
	C130.500809,14.879257 120.761154,16.463280 111.008278,16.807571 
	C110.657516,15.248099 110.348999,14.058537 110.040489,12.868977 
	C110.040489,12.868977 110.483665,12.975657 111.061188,13.021408 
	C115.421638,13.035001 119.204567,13.002844 123.329948,12.934101 
	C124.151482,12.196777 124.630562,11.496039 125.435226,10.830084 
	C126.785332,10.524416 127.809853,10.183965 129.055145,10.147783 
	C132.917633,12.581459 136.548843,14.256689 140.566513,11.139529 
	C141.095566,10.729073 142.177032,11.030610 143.344147,11.154610 
	C145.910629,11.868834 148.117081,12.598088 150.376572,12.848337 
	C150.815796,12.896983 151.461594,11.080379 152.012100,10.124145 
	C152.453064,10.085818 152.894043,10.047493 153.669174,10.437227 
	C154.679443,11.782480 155.355545,12.699674 156.031647,13.616864 
	C156.358856,12.797647 156.686081,11.978435 157.013306,11.159224 
	C162.155197,12.112567 167.365387,12.798680 172.420502,14.091309 
	C177.929413,15.499976 183.294510,17.471138 188.884476,19.919247 
	C189.631760,21.873493 189.886978,23.702761 190.856750,24.238462 
	C196.207840,27.194376 201.733292,29.834641 207.480774,32.724846 
	C207.673508,31.727459 207.850037,30.813911 208.026566,29.900362 
	C209.476303,30.874084 210.926041,31.847809 212.737305,33.338356 
	C213.395844,35.238113 213.692856,36.621044 213.989868,38.003975 
	C213.989883,38.003975 213.496567,38.000847 213.193863,37.863251 
	C212.807098,37.677132 212.723022,37.628605 212.638977,37.580074 
	C212.757904,37.721142 212.876831,37.862213 212.995758,38.003288 
z"/>
<path fill="#B8B8B8" opacity="1.000000" stroke="none" 
	d="
M109.870056,12.542570 
	C110.348999,14.058537 110.657516,15.248099 110.765144,17.058029 
	C109.400955,17.847080 108.237656,18.015760 106.939850,17.877235 
	C106.066345,16.891890 105.327347,16.213747 104.169327,15.151083 
	C104.092514,16.859188 104.044594,17.924870 103.742188,19.253370 
	C87.398712,23.936199 73.145233,31.908644 59.983685,41.994381 
	C59.077202,41.188103 58.170723,40.381824 57.134071,39.037334 
	C57.002693,38.325752 57.001495,38.152382 57.000294,37.979015 
	C57.000294,37.979015 57.005665,38.003616 57.276375,37.827225 
	C57.696690,37.007092 57.846298,36.363346 57.995907,35.719601 
	C58.394569,35.481930 58.793236,35.244259 59.733604,34.927910 
	C60.522118,34.542213 60.768929,34.235191 61.015739,33.928169 
	C61.005318,33.502274 60.994896,33.076378 60.993698,32.331078 
	C67.049080,28.388145 73.071350,24.723989 79.147255,21.151045 
	C87.306389,16.353060 96.154266,13.746852 105.577637,12.995706 
	C106.963531,12.885233 108.326202,12.483262 109.870056,12.542570 
z"/>
<path fill="#A2A2A2" opacity="1.000000" stroke="none" 
	d="
M207.990768,29.549011 
	C207.850037,30.813911 207.673508,31.727459 207.480774,32.724846 
	C201.733292,29.834641 196.207840,27.194376 190.856750,24.238462 
	C189.886978,23.702761 189.631760,21.873493 189.059143,20.246819 
	C195.366074,22.967369 201.660522,26.082514 207.990768,29.549011 
z"/>
<path fill="#FFFFFF" opacity="1.000000" stroke="none" 
	d="
M128.834381,9.843515 
	C127.809853,10.183965 126.785332,10.524416 125.250473,10.586214 
	C124.150642,10.325628 123.561134,10.343694 122.624634,10.277487 
	C121.806702,10.122956 121.335770,10.052699 120.864845,9.982443 
	C121.875153,9.322300 122.875252,8.108349 123.897362,8.089527 
	C132.156342,7.937449 140.419586,7.993227 148.680923,8.060575 
	C149.120102,8.064155 149.553772,8.744097 149.646606,9.559011 
	C147.196960,9.695712 145.090683,9.382576 142.524323,9.013235 
	C137.654282,9.252525 133.244324,9.548020 128.834381,9.843515 
z"/>
<path fill="#9A9A9A" opacity="1.000000" stroke="none" 
	d="
M214.340408,38.067238 
	C213.692856,36.621044 213.395844,35.238113 213.032486,33.504387 
	C217.253281,33.877937 220.505157,35.932144 222.067047,40.575096 
	C219.634537,40.005116 217.162750,39.067806 214.340408,38.067238 
z"/>
<path fill="#A6A6A6" opacity="1.000000" stroke="none" 
	d="
M120.633781,9.973562 
	C121.335770,10.052699 121.806702,10.122956 122.631454,10.601517 
	C122.986023,11.663442 122.986755,12.317064 122.987495,12.970687 
	C119.204567,13.002844 115.421638,13.035001 111.289093,13.019997 
	C113.372650,11.991692 115.805824,11.010548 118.728241,10.240658 
	C119.467644,10.342022 119.717781,10.232132 119.967926,10.122240 
	C119.967926,10.122239 120.402718,9.964682 120.633781,9.973562 
z"/>
<path fill="#ACACAC" opacity="1.000000" stroke="none" 
	d="
M142.984421,9.069439 
	C145.090683,9.382576 147.196960,9.695712 149.711853,9.995681 
	C150.544830,9.979107 150.969177,9.975701 151.702820,10.048221 
	C151.461594,11.080379 150.815796,12.896983 150.376572,12.848337 
	C148.117081,12.598088 145.910629,11.868834 143.349319,10.832289 
	C143.003464,9.928310 142.993942,9.498874 142.984421,9.069439 
z"/>
<path fill="#9A9A9A" opacity="1.000000" stroke="none" 
	d="
M44.976368,48.050915 
	C44.409210,47.823235 43.842049,47.595554 43.113579,47.097305 
	C44.391071,45.276749 45.829876,43.726761 47.572792,42.078293 
	C48.327297,42.489304 48.777691,42.998795 48.846916,43.933205 
	C47.302624,45.589050 46.139496,46.819981 44.976368,48.050915 
z"/>
<path fill="#ACACAC" opacity="1.000000" stroke="none" 
	d="
M156.701950,11.025133 
	C156.686081,11.978435 156.358856,12.797647 156.031647,13.616864 
	C155.355545,12.699674 154.679443,11.782480 153.994003,10.512297 
	C154.786636,10.403221 155.588623,10.647133 156.701950,11.025133 
z"/>
<path fill="#B8B8B8" opacity="1.000000" stroke="none" 
	d="
M31.065250,61.267853 
	C32.289909,61.172264 33.413979,61.350750 34.538048,61.529232 
	C34.527367,61.863598 34.516689,62.197964 34.506008,62.532330 
	C33.334538,62.702942 32.163067,62.873558 30.617388,63.060509 
	C30.483673,62.565205 30.724169,62.053562 31.065250,61.267853 
z"/>
<path fill="#BFBFBF" opacity="1.000000" stroke="none" 
	d="
M119.735214,10.076675 
	C119.717781,10.232132 119.467644,10.342022 119.131119,10.303480 
	C119.044731,10.155048 119.502510,10.031110 119.735214,10.076675 
z"/>
<path fill="#D7D7D7" opacity="1.000000" stroke="none" 
	d="
M69.000298,251.001831 
	C72.260193,253.380508 74.378807,256.252991 72.724762,260.844055 
	C71.593468,260.788849 70.880638,260.466309 70.085526,259.798645 
	C69.291222,258.971558 68.579185,258.489594 67.499771,257.989319 
	C65.702141,257.675507 64.271912,257.379974 62.841675,257.084442 
	C62.841679,257.084442 62.933231,257.070282 62.930359,256.744720 
	C61.909019,255.966309 60.890549,255.513458 59.872078,255.060608 
	C59.872074,255.060608 59.953781,255.050049 59.938499,254.774887 
	C58.911354,254.010361 57.899487,253.521011 56.887619,253.031647 
	C56.598392,252.895950 56.309166,252.760254 55.939369,252.035187 
	C54.562572,249.944641 53.266350,248.443466 51.851425,246.722717 
	C51.445133,246.344040 51.157547,246.184921 50.584774,245.875854 
	C49.491589,244.507431 48.683586,243.288940 48.238003,242.051758 
	C51.731335,243.355377 54.862251,244.677689 57.993172,246.000000 
	C58.463234,246.319061 58.933296,246.638107 59.706970,247.358505 
	C61.854687,252.030396 66.106476,253.563721 69.000298,251.001831 
z"/>
<path fill="#FFFFFF" opacity="1.000000" stroke="none" 
	d="
M24.655045,220.292099 
	C17.161669,210.336182 11.835842,199.316986 8.847004,187.195618 
	C9.768563,187.669113 10.328213,188.275879 11.145504,189.064545 
	C11.804488,190.167297 12.205829,191.088120 12.732924,192.334259 
	C13.207612,193.485443 13.556546,194.311310 13.927170,195.393356 
	C14.156982,196.089111 14.365107,196.528702 14.727435,197.285095 
	C16.549986,200.533279 18.479767,203.350281 19.824444,206.423309 
	C21.765257,210.858688 23.281569,215.479797 24.898312,220.089630 
	C24.817614,220.157593 24.655045,220.292099 24.655045,220.292099 
z"/>
<path fill="#D1D1D1" opacity="1.000000" stroke="none" 
	d="
M11.005838,170.968460 
	C11.502155,170.707108 11.998473,170.445755 12.751673,170.499207 
	C12.201452,175.111649 16.571074,178.578461 14.683457,183.026398 
	C13.944881,183.342499 13.487919,183.636551 12.763336,184.084061 
	C12.321832,184.602402 12.147944,184.967270 11.997986,185.486786 
	C12.021915,185.641403 12.026651,185.954300 11.657572,185.949524 
	C10.551029,185.955917 9.813566,185.967072 9.076105,185.978210 
	C8.277447,183.037521 7.478789,180.096832 6.320429,176.984802 
	C6.239933,175.397766 6.519139,173.982056 6.920601,172.032532 
	C8.363852,171.321960 9.684846,171.145203 11.005838,170.968460 
M9.597915,180.501053 
	C9.597915,180.501053 9.417562,180.400803 9.417562,180.400803 
	C9.417562,180.400803 9.443789,180.584396 9.597915,180.501053 
z"/>
<path fill="#FFFFFF" opacity="1.000000" stroke="none" 
	d="
M51.970131,246.942291 
	C53.266350,248.443466 54.562572,249.944641 55.915623,251.781769 
	C50.831749,251.439331 47.934372,247.515656 44.626923,244.218796 
	C41.218540,240.821350 37.891747,237.342056 34.604492,233.419846 
	C35.113014,232.636795 35.546291,232.332474 36.295708,232.147766 
	C40.366432,235.535080 44.121006,238.802780 47.875584,242.070465 
	C48.683586,243.288940 49.491589,244.507431 50.715706,246.088974 
	C51.339848,246.737640 51.619282,246.901062 51.970131,246.942291 
z"/>
<path fill="#E1E1E1" opacity="1.000000" stroke="none" 
	d="
M35.979561,232.028168 
	C35.546291,232.332474 35.113014,232.636795 34.525253,233.075317 
	C33.940392,232.865906 33.510010,232.522308 33.011890,231.466461 
	C32.922371,229.572311 32.900589,228.390411 33.149414,227.009155 
	C34.265427,226.216965 35.110832,225.624161 36.073437,225.246552 
	C36.389088,225.739487 36.653145,225.922592 37.253052,226.156708 
	C38.340790,227.197983 39.158279,228.093674 39.609718,228.984024 
	C38.155636,229.995178 37.067600,231.011658 35.979561,232.028168 
z"/>
<path fill="#FFFFFF" opacity="1.000000" stroke="none" 
	d="
M29.658386,227.295242 
	C28.046619,225.185303 26.434855,223.075348 24.739067,220.628754 
	C24.655045,220.292099 24.817614,220.157593 25.273495,220.054504 
	C29.243692,221.047424 30.221655,223.667740 29.898691,227.090469 
	C29.818865,227.159058 29.658386,227.295242 29.658386,227.295242 
z"/>
<path fill="#FFFFFF" opacity="1.000000" stroke="none" 
	d="
M70.167801,260.143799 
	C70.880638,260.466309 71.593468,260.788849 72.603920,261.138428 
	C74.123985,261.767944 75.346436,262.370361 76.978157,263.271881 
	C77.932213,264.370667 78.476997,265.170380 79.015656,265.978516 
	C79.009521,265.986969 79.000000,266.000000 79.000000,266.000000 
	C75.731842,264.568207 72.463684,263.136414 69.102921,261.345520 
	C69.010307,260.986420 69.020660,260.972565 69.265884,260.926147 
	C69.807816,260.703857 70.026711,260.458557 70.167801,260.143799 
z"/>
<path fill="#FFFFFF" opacity="1.000000" stroke="none" 
	d="
M63.002201,257.395447 
	C64.271912,257.379974 65.702141,257.675507 67.660095,258.273926 
	C68.465424,259.375427 68.743042,260.173981 69.020660,260.972565 
	C69.020660,260.972565 69.010307,260.986420 69.005157,260.993225 
	C67.054245,259.902130 65.108490,258.804260 63.002201,257.395447 
z"/>
<path fill="#FFFFFF" opacity="1.000000" stroke="none" 
	d="
M32.878807,227.208527 
	C32.900589,228.390411 32.922371,229.572311 32.924469,231.198517 
	C31.920937,230.404160 30.937094,229.165482 29.805819,227.611023 
	C29.658386,227.295242 29.818865,227.159058 30.262371,227.048782 
	C31.430185,227.028519 32.154495,227.118515 32.878807,227.208527 
z"/>
<path fill="#FFFFFF" opacity="1.000000" stroke="none" 
	d="
M85.851173,267.743744 
	C85.315331,268.291168 84.596252,268.572449 83.552628,268.886078 
	C82.529129,268.491882 81.830193,268.065338 81.070435,267.312805 
	C81.009621,266.986847 81.021980,266.969971 81.289841,266.918060 
	C82.026428,266.609650 82.495163,266.353149 82.963898,266.096680 
	C83.865250,266.556976 84.766586,267.017303 85.851173,267.743744 
z"/>
<path fill="#FFFFFF" opacity="1.000000" stroke="none" 
	d="
M57.006214,253.343536 
	C57.899487,253.521011 58.911354,254.010361 59.932121,254.815582 
	C59.002285,254.639420 58.063549,254.147415 57.006214,253.343536 
z"/>
<path fill="#FFFFFF" opacity="1.000000" stroke="none" 
	d="
M60.002201,255.364563 
	C60.890549,255.513458 61.909019,255.966309 62.922173,256.790314 
	C61.988674,256.663818 61.060501,256.166168 60.002201,255.364563 
z"/>
<path fill="#A2A2A2" opacity="1.000000" stroke="none" 
	d="
M8.871310,186.080597 
	C9.813566,185.967072 10.551029,185.955917 11.538671,186.246140 
	C11.488523,187.325897 11.188194,188.104263 10.887865,188.882645 
	C10.328213,188.275879 9.768563,187.669113 8.959556,186.850586 
	C8.710197,186.638840 8.666516,186.182999 8.871310,186.080597 
z"/>
<path fill="#FFFFFF" opacity="1.000000" stroke="none" 
	d="
M81.004807,266.993408 
	C80.377068,266.879944 79.754135,266.759918 79.065598,266.319946 
	C79.000000,266.000000 79.009521,265.986969 79.283783,265.931152 
	C80.046028,266.240234 80.533997,266.605103 81.021973,266.969971 
	C81.021980,266.969971 81.009621,266.986847 81.004807,266.993408 
z"/>
<path fill="#FFFFFF" opacity="1.000000" stroke="none" 
	d="
M258.897034,191.992279 
	C258.931427,191.822876 258.965790,191.653473 259.293701,191.058807 
	C260.327850,189.441071 261.068512,188.248566 262.002808,187.296387 
	C262.778351,187.700455 263.360291,187.864212 263.942200,188.027969 
	C259.209167,203.450714 251.297836,217.167557 241.249237,229.668839 
	C238.026489,233.678177 234.253235,237.245026 230.392990,240.723114 
	C230.171555,239.931015 230.288986,239.430145 230.596832,238.829788 
	C231.189316,238.282166 231.591385,237.834030 232.200897,237.184906 
	C232.602295,236.661316 232.796249,236.338699 233.195709,235.740280 
	C234.271133,233.700943 235.141052,231.937424 236.283875,230.010498 
	C236.965118,228.911346 237.373428,227.975601 237.975311,227.286911 
	C239.785706,228.382385 239.785706,228.382385 240.460739,224.912018 
	C242.173309,223.910248 244.787308,223.780563 243.282211,221.008698 
	C243.703583,221.020126 243.872070,221.026886 244.417130,220.976578 
	C245.206848,219.293976 245.620026,217.668442 246.019531,216.021790 
	C246.005875,216.000656 246.045395,216.033020 246.287933,216.024292 
	C246.530487,216.015549 247.015045,215.986465 247.257004,215.904602 
	C247.692581,215.214249 247.886185,214.605743 248.155853,213.723587 
	C248.547821,212.978699 248.863739,212.507477 249.363388,212.053528 
	C249.547119,212.070816 249.911575,212.128952 250.074799,212.323395 
	C250.179520,211.895218 250.121017,211.272568 250.219635,210.416595 
	C250.667496,209.499466 250.958252,208.815659 251.559082,208.078857 
	C252.625565,207.108109 253.381989,206.190338 254.359787,205.032654 
	C256.032257,201.569687 257.569092,198.380859 258.878265,195.101151 
	C259.235931,194.205139 258.909515,193.036041 258.897034,191.992279 
z"/>
<path fill="#EAEAEA" opacity="1.000000" stroke="none" 
	d="
M261.809143,187.056076 
	C261.068512,188.248566 260.327850,189.441071 259.340515,190.803787 
	C258.347351,190.955963 257.600922,190.937897 256.458984,190.697662 
	C256.063446,190.475479 256.047333,190.005539 256.047333,190.005539 
	C256.315491,189.510223 256.583618,189.014923 256.955811,187.884155 
	C257.054871,186.504044 257.049927,185.759369 257.044983,185.014709 
	C257.056183,184.562302 257.067352,184.109879 257.120331,182.999786 
	C257.792999,181.258163 258.423859,180.174210 259.054749,179.090271 
	C259.054718,179.090256 259.079224,179.035034 259.350464,179.199142 
	C260.737671,179.253769 261.853668,179.144272 263.258606,179.071808 
	C263.933167,179.104126 264.318848,179.099426 264.704498,179.094727 
	C264.404358,180.812271 264.104218,182.529816 263.716919,184.665680 
	C263.629761,185.084000 263.520538,185.021774 263.162781,185.102417 
	C262.473053,185.807388 262.141113,186.431732 261.809143,187.056076 
z"/>
<path fill="#808080" opacity="1.000000" stroke="none" 
	d="
M208.801361,255.924286 
	C212.027679,254.371826 215.253983,252.819351 218.717728,251.494446 
	C213.181519,255.794540 207.407867,259.867065 201.304596,263.521027 
	C202.627426,261.386475 204.279846,259.670502 205.932281,257.954559 
	C205.932297,257.954559 205.996262,257.996338 206.304764,257.966919 
	C207.342636,257.266418 208.071991,256.595337 208.801361,255.924286 
z"/>
<path fill="#FFFFFF" opacity="1.000000" stroke="none" 
	d="
M189.420441,269.171844 
	C188.697510,269.309570 188.208313,269.157410 187.328613,268.972839 
	C186.938126,268.940399 186.978821,268.980804 187.008606,268.743164 
	C187.030136,268.333038 187.021866,268.160553 187.013596,267.988037 
	C187.092316,267.726135 187.221527,267.492096 187.710541,267.356750 
	C188.351349,267.280731 188.682861,267.133911 189.014374,266.987091 
	C191.148346,266.282806 193.282318,265.578522 195.747772,264.963104 
	C193.937561,266.328583 191.795868,267.605255 189.420441,269.171844 
z"/>
<path fill="#C2C2C2" opacity="1.000000" stroke="none" 
	d="
M205.557236,257.964294 
	C204.279846,259.670502 202.627426,261.386475 200.941208,263.449951 
	C200.743622,263.837341 200.579803,263.877258 200.062653,263.649719 
	C199.415756,263.001251 199.122177,262.620239 198.828598,262.239258 
	C200.946472,260.817505 203.064331,259.395752 205.557236,257.964294 
z"/>
<path fill="#C1C1C1" opacity="1.000000" stroke="none" 
	d="
M230.406418,238.929276 
	C230.288986,239.430145 230.171555,239.931015 230.045593,240.820023 
	C230.113556,241.544510 230.004990,241.803207 229.494965,242.039871 
	C228.846725,241.303284 228.414902,240.511108 228.296448,239.322037 
	C228.814072,238.891205 229.018326,238.857269 229.517792,238.858246 
	C230.010803,238.905212 230.208618,238.917236 230.406418,238.929276 
z"/>
<path fill="#ACACAC" opacity="1.000000" stroke="none" 
	d="
M265.008881,173.022797 
	C265.343140,174.071655 265.684570,175.103882 266.048157,176.492523 
	C266.070282,176.848953 265.607300,177.011871 265.303009,177.005219 
	C264.998718,176.998581 264.867493,176.869431 264.919617,176.594208 
	C264.678741,175.873856 264.385681,175.428741 264.159119,174.718842 
	C264.496338,173.979904 264.767029,173.505707 265.037750,173.031525 
	C265.037750,173.031525 265.016052,173.006134 265.008881,173.022797 
z"/>
<path fill="#ACACAC" opacity="1.000000" stroke="none" 
	d="
M262.002808,187.296387 
	C262.141113,186.431732 262.473053,185.807388 263.042114,185.360458 
	C263.564728,185.668518 263.850220,185.799179 264.135742,185.929840 
	C264.135742,185.929840 264.056000,185.978394 263.957397,186.285538 
	C263.922729,186.829483 263.986694,187.066269 264.050629,187.303070 
	C264.050629,187.303070 264.129822,187.685486 264.036011,187.856720 
	C263.360291,187.864212 262.778351,187.700455 262.002808,187.296387 
z"/>
<path fill="#ACACAC" opacity="1.000000" stroke="none" 
	d="
M264.830627,178.780945 
	C264.318848,179.099426 263.933167,179.104126 263.302002,178.753296 
	C263.660126,177.888321 264.263824,177.378891 264.867493,176.869446 
	C264.867493,176.869431 264.998718,176.998581 265.064484,177.063019 
	C265.072418,177.574020 265.014557,178.020584 264.830627,178.780945 
z"/>
<path fill="#FFFFFF" opacity="1.000000" stroke="none" 
	d="
M198.601837,262.379395 
	C199.122177,262.620239 199.415756,263.001251 199.814758,263.599670 
	C199.503220,263.880005 199.086258,263.942902 198.353790,264.049774 
	C198.150528,263.569000 198.262787,263.044250 198.601837,262.379395 
z"/>
<path fill="#FFFFFF" opacity="1.000000" stroke="none" 
	d="
M196.355148,265.049438 
	C196.538208,264.715118 197.038406,264.336212 197.809891,264.003693 
	C197.611542,264.368347 197.141907,264.686615 196.355148,265.049438 
z"/>
<path fill="#FFFFFF" opacity="1.000000" stroke="none" 
	d="
M264.059753,185.693359 
	C263.850220,185.799179 263.564728,185.668518 263.399872,185.279816 
	C263.520538,185.021774 263.629761,185.084000 263.684998,185.053955 
	C263.740204,185.023926 263.983765,185.456894 264.059753,185.693359 
z"/>
<path fill="#FFFFFF" opacity="1.000000" stroke="none" 
	d="
M264.283203,187.142502 
	C263.986694,187.066269 263.922729,186.829483 263.968140,186.240112 
	C264.223572,186.252335 264.369690,186.617142 264.283203,187.142502 
z"/>
<path fill="#FDFDFD" opacity="1.000000" stroke="none" 
	d="
M107.074348,18.184439 
	C108.237656,18.015760 109.400955,17.847080 110.807396,17.427940 
	C120.761154,16.463280 130.500809,14.879257 140.176819,15.202085 
	C166.541306,16.081705 190.408127,24.402668 210.955902,41.366035 
	C211.324265,41.670143 211.830383,41.807384 212.617859,42.088394 
	C219.614212,49.359295 226.738861,56.188713 232.811539,63.851791 
	C243.617081,77.487259 250.075806,93.312950 254.066528,110.588257 
	C261.057983,147.409866 253.272827,180.360229 230.768936,209.836380 
	C230.471481,210.226028 230.279175,210.695984 229.692810,211.647461 
	C221.778717,219.154144 214.828156,227.003082 206.523987,232.967361 
	C182.016541,250.569290 154.636795,258.281555 124.272095,255.147858 
	C102.194473,252.869400 82.345901,245.331100 64.626389,232.115433 
	C59.326916,228.162979 54.327484,223.808212 49.113068,219.329025 
	C42.975754,210.559097 36.351604,202.439133 30.983011,193.560028 
	C22.005335,178.711838 17.860394,162.142822 15.940178,144.992218 
	C15.940221,143.932602 15.940264,142.873001 15.950623,140.972778 
	C15.924332,137.747131 15.887727,135.362122 15.851121,132.977097 
	C16.028643,130.495819 16.206163,128.014542 16.212311,124.885315 
	C16.109827,123.198685 16.178715,122.159996 16.247604,121.121315 
	C19.529072,109.897491 22.054977,98.380798 26.265841,87.517220 
	C32.886940,70.435509 43.761250,56.098034 57.916363,44.347328 
	C58.550575,43.820850 59.081993,43.170544 59.822491,42.286148 
	C73.145233,31.908644 87.398712,23.936199 104.076569,19.258430 
	C105.468399,18.728592 106.271378,18.456514 107.074348,18.184439 
M43.790756,187.653076 
	C67.741455,226.512619 102.687843,244.907196 147.976913,240.621521 
	C205.876511,235.142471 247.479782,183.093536 242.206894,124.780312 
	C236.349274,60.000404 172.855988,15.337446 109.967697,31.759544 
	C41.863125,49.543777 9.854622,124.178795 43.790756,187.653076 
z"/>
<path fill="#C5C5C5" opacity="1.000000" stroke="none" 
	d="
M49.190590,219.637756 
	C54.327484,223.808212 59.326916,228.162979 64.626389,232.115433 
	C82.345901,245.331100 102.194473,252.869400 124.272095,255.147858 
	C154.636795,258.281555 182.016541,250.569290 206.523987,232.967361 
	C214.828156,227.003082 221.778717,219.154144 229.632690,211.982376 
	C229.216125,213.753326 228.950546,216.048798 227.736282,217.603165 
	C223.021469,223.638580 218.005096,229.438446 212.706787,235.715240 
	C210.541748,237.735916 208.770874,239.367340 206.750000,240.999359 
	C206.333328,241.000183 206.166672,241.000397 205.802490,240.752441 
	C204.162125,241.083221 202.680618,241.582413 201.284943,242.258713 
	C198.828995,243.448746 196.425476,244.747040 193.637054,246.037628 
	C191.182556,247.383499 189.090973,248.691757 186.627472,250.039825 
	C181.503708,251.719772 176.751862,253.359879 171.597137,255.007889 
	C152.054260,261.054718 132.598312,260.935059 112.998009,258.001221 
	C112.554466,258.001434 112.110931,258.001678 111.004333,257.834167 
	C109.336487,257.125427 108.388664,256.301117 107.318352,256.085846 
	C90.676949,252.738647 75.780060,245.571014 62.065090,235.721161 
	C60.899101,234.883774 59.362862,234.561951 57.739700,233.893738 
	C56.987232,233.524368 56.493690,233.261887 55.964935,232.650040 
	C53.683342,228.079712 51.436966,223.858734 49.190590,219.637756 
z"/>
<path fill="#CDCDCD" opacity="1.000000" stroke="none" 
	d="
M244.040558,221.033661 
	C243.872070,221.026886 243.703583,221.020126 243.274033,221.016861 
	C243.012970,221.020340 243.001968,221.038269 242.895599,220.812286 
	C242.592911,220.302689 242.332397,220.102661 242.005051,219.679626 
	C241.001404,217.914963 240.000397,216.456909 238.999390,214.998856 
	C239.872940,212.450043 240.446487,209.743484 241.685699,207.386948 
	C243.917007,203.143738 246.458969,199.053070 249.070709,195.028152 
	C249.750977,193.979797 251.168335,193.409744 252.247147,192.620010 
	C254.624344,196.918640 256.307098,193.042465 258.568542,192.051605 
	C258.909515,193.036041 259.235931,194.205139 258.878265,195.101151 
	C257.569092,198.380859 256.032257,201.569687 254.033173,205.022568 
	C252.658630,205.497147 251.832077,205.741913 250.860504,205.812225 
	C250.389191,205.644577 250.062866,205.651398 249.736557,205.658203 
	C250.150299,205.778809 250.564041,205.899429 251.037598,206.369370 
	C251.147949,207.189743 251.198471,207.660782 251.249008,208.131836 
	C250.958252,208.815659 250.667496,209.499466 250.188538,210.788589 
	C249.970764,211.638916 249.941177,211.883942 249.911575,212.128952 
	C249.911575,212.128952 249.547119,212.070816 248.978836,212.028473 
	C247.897079,211.996185 247.383606,212.006271 246.545197,211.996826 
	C245.349915,211.780167 244.479538,211.583023 242.874588,211.219513 
	C244.222321,213.265457 245.133850,214.649246 246.045395,216.033020 
	C246.045395,216.033020 246.005875,216.000656 245.758911,216.023621 
	C245.021500,217.708939 244.531036,219.371307 244.040558,221.033661 
M248.161560,207.721375 
	C248.062546,207.722244 247.963516,207.723114 248.161560,207.721375 
M252.482224,196.588562 
	C252.482224,196.588562 252.411942,196.472672 252.482224,196.588562 
z"/>
<path fill="#D4D4D4" opacity="1.000000" stroke="none" 
	d="
M237.781738,227.039871 
	C237.373428,227.975601 236.965118,228.911346 236.088501,229.738739 
	C233.876846,231.171722 232.133484,232.713043 230.277252,233.929123 
	C229.773849,233.062119 229.383331,232.520355 228.992798,231.978577 
	C228.992798,231.978577 228.996140,231.503342 228.998993,231.266083 
	C229.515045,229.605835 229.856674,228.087555 230.581635,226.782135 
	C231.671982,224.818741 233.030655,223.004349 234.680878,221.376709 
	C235.726532,222.721237 236.366577,223.815643 237.080902,225.128174 
	C237.313293,225.615677 237.532150,225.819931 238.014679,226.054474 
	C238.072311,226.446533 237.927017,226.743195 237.781738,227.039871 
z"/>
<path fill="#CDCDCD" opacity="1.000000" stroke="none" 
	d="
M264.919647,176.594208 
	C264.263824,177.378891 263.660126,177.888321 263.013062,178.716263 
	C261.853668,179.144272 260.737671,179.253769 259.355377,179.229095 
	C258.344879,177.297867 257.600708,175.500809 256.640381,173.181870 
	C257.577362,171.840805 258.931702,169.902328 260.896912,167.089584 
	C261.786438,169.353256 262.353821,170.797150 262.733032,172.791138 
	C263.060822,173.888702 263.576721,174.436157 264.092651,174.983612 
	C264.385681,175.428741 264.678741,175.873856 264.919647,176.594208 
z"/>
<path fill="#D3D3D3" opacity="1.000000" stroke="none" 
	d="
M265.000916,149.398499 
	C266.125275,150.808762 267.249298,152.632767 268.617981,154.653595 
	C268.436371,157.093811 268.010071,159.337219 267.273682,161.786499 
	C263.575073,160.402466 259.730896,159.125549 264.277588,154.481216 
	C265.173523,153.566025 264.792664,151.400909 265.000916,149.398499 
z"/>
<path fill="#CFCFCF" opacity="1.000000" stroke="none" 
	d="
M264.678772,134.015991 
	C265.619812,138.282394 266.200043,142.596466 266.762939,146.912796 
	C266.764679,146.926132 266.478424,147.036972 266.390564,146.987869 
	C266.261902,146.915985 266.191101,146.740555 266.039764,146.315216 
	C264.932526,143.313400 263.632446,140.665848 262.954315,137.867569 
	C262.689301,136.773956 263.821686,135.341705 264.678772,134.015991 
z"/>
<path fill="#CBCBCB" opacity="1.000000" stroke="none" 
	d="
M219.656982,236.858124 
	C219.434494,238.470917 218.852020,239.922745 217.894974,241.689133 
	C217.520416,242.003708 217.036331,242.006241 216.734024,241.985077 
	C215.287170,241.974915 214.142624,241.985931 212.998627,241.568817 
	C212.999435,239.427109 212.999725,237.713562 213.000000,236.000000 
	C215.098999,236.232391 217.197998,236.464767 219.656982,236.858124 
z"/>
<path fill="#D4D4D4" opacity="1.000000" stroke="none" 
	d="
M238.839035,215.319168 
	C240.000397,216.456909 241.001404,217.914963 241.706329,219.702118 
	C240.943604,220.352173 240.476944,220.673141 239.634369,220.993332 
	C238.506760,220.995026 237.755081,220.997513 237.003387,220.999985 
	C237.561829,219.213150 238.120255,217.426315 238.839035,215.319168 
z"/>
<path fill="#CBCBCB" opacity="1.000000" stroke="none" 
	d="
M236.780792,220.916870 
	C237.755081,220.997513 238.506760,220.995026 239.638107,221.218430 
	C240.017761,221.444305 240.010284,221.894424 239.988068,222.225266 
	C239.645081,223.371201 239.324310,224.186279 238.793243,225.007843 
	C238.582947,225.014328 238.162140,225.015381 237.873413,224.987381 
	C237.391998,224.942947 237.199310,224.926498 237.006607,224.910065 
	C236.366577,223.815643 235.726532,222.721237 235.045929,221.299301 
	C235.522964,220.925766 236.040588,220.879761 236.780792,220.916870 
z"/>
<path fill="#CDCDCD" opacity="1.000000" stroke="none" 
	d="
M258.660217,179.061310 
	C258.423859,180.174210 257.792999,181.258163 257.114777,182.660400 
	C256.427460,182.126892 255.787521,181.275116 255.147583,180.423340 
	C256.186951,179.959671 257.226288,179.496017 258.660217,179.061310 
z"/>
<path fill="#CDCDCD" opacity="1.000000" stroke="none" 
	d="
M256.733124,185.044098 
	C257.049927,185.759369 257.054871,186.504044 257.058411,187.621338 
	C256.845093,187.020477 256.633179,186.046982 256.733124,185.044098 
z"/>
<path fill="#D9D9D9" opacity="1.000000" stroke="none" 
	d="
M264.159119,174.718842 
	C263.576721,174.436157 263.060822,173.888702 262.777161,173.158875 
	C263.460175,172.984146 263.910980,172.991791 264.699768,173.015472 
	C264.767029,173.505707 264.496338,173.979904 264.159119,174.718842 
z"/>
<path fill="#CFCFCF" opacity="1.000000" stroke="none" 
	d="
M263.240723,145.010895 
	C263.409729,144.898911 263.580322,144.953812 263.750946,145.008713 
	C263.581390,145.065063 263.411865,145.121429 263.240723,145.010895 
z"/>
<path fill="#BEBEBE" opacity="1.000000" stroke="none" 
	d="
M263.968506,116.246933 
	C264.076904,116.410309 264.023529,116.576180 263.970123,116.742043 
	C263.915649,116.577827 263.861145,116.413620 263.968506,116.246933 
z"/>
<path fill="#D3D3D3" opacity="1.000000" stroke="none" 
	d="
M266.982758,164.265198 
	C267.106018,164.295593 267.228821,164.560776 267.167358,164.897766 
	C266.983124,164.969574 266.982300,164.499985 266.982758,164.265198 
z"/>
<path fill="#CDCDCD" opacity="1.000000" stroke="none" 
	d="
M255.867096,190.089691 
	C256.047333,190.005539 256.063446,190.475479 256.086884,190.708939 
	C255.969162,190.686218 255.828018,190.430023 255.867096,190.089691 
z"/>
<path fill="#CBCBCB" opacity="1.000000" stroke="none" 
	d="
M221.005341,236.242737 
	C221.184753,236.159149 221.377075,236.317184 221.524704,236.509537 
	C221.553467,236.547028 221.408524,236.717850 221.172836,236.915405 
	C221.002182,236.834549 221.002396,236.665451 221.005341,236.242737 
z"/>
<path fill="#C6C6C6" opacity="1.000000" stroke="none" 
	d="
M57.998627,234.000610 
	C59.362862,234.561951 60.899101,234.883774 62.065090,235.721161 
	C75.780060,245.571014 90.676949,252.738647 107.318352,256.085846 
	C108.388664,256.301117 109.336487,257.125427 110.671684,257.834290 
	C107.562408,262.204407 103.690788,258.906952 100.510742,257.990814 
	C94.888557,256.371124 89.535217,253.669861 84.262741,251.034393 
	C80.453392,249.130295 76.933235,247.121582 72.453178,251.854111 
	C72.737656,242.515640 64.396927,242.067780 60.466129,237.433334 
	C60.427006,237.387207 59.564899,238.039139 58.755066,238.803619 
	C57.282513,238.828033 56.141891,238.414017 55.317741,237.860016 
	C56.422352,236.480209 57.210491,235.240417 57.998627,234.000610 
z"/>
<path fill="#D0D0D0" opacity="1.000000" stroke="none" 
	d="
M55.001274,238.000000 
	C56.141891,238.414017 57.282513,238.828033 58.711491,239.122559 
	C57.878281,241.255066 62.915112,243.825592 58.317780,245.957321 
	C54.862251,244.677689 51.731335,243.355377 48.237999,242.051758 
	C44.121006,238.802780 40.366432,235.535080 36.295708,232.147766 
	C37.067600,231.011658 38.155636,229.995178 39.621544,228.989792 
	C39.999416,229.000900 40.013062,229.018692 40.117767,229.237549 
	C40.422825,229.727570 40.685093,229.909531 41.346695,229.999542 
	C42.455368,229.663345 43.226627,229.329880 44.244423,228.830109 
	C44.660305,228.107208 44.829651,227.550583 45.280731,227.123840 
	C46.376320,228.169128 47.190174,229.084564 47.773705,230.170120 
	C48.028278,230.894028 48.513168,231.447830 48.999031,232.000809 
	C49.000000,232.000000 48.998417,232.001831 49.030918,232.331848 
	C51.042706,234.441238 53.021992,236.220612 55.001274,238.000000 
z"/>
<path fill="#C6C6C6" opacity="1.000000" stroke="none" 
	d="
M113.055405,258.357819 
	C132.598312,260.935059 152.054260,261.054718 171.490356,255.266998 
	C171.524323,256.012146 171.262161,256.506073 171.000000,257.000000 
	C166.362152,258.654907 161.826065,261.230164 157.063492,261.756653 
	C149.231735,262.622345 141.253433,262.210968 133.336548,262.239349 
	C128.724060,262.255890 124.070107,262.411163 119.515465,261.849670 
	C117.286285,261.574829 115.241203,259.806671 113.055405,258.357819 
z"/>
<path fill="#C6C6C6" opacity="1.000000" stroke="none" 
	d="
M171.412537,256.990997 
	C171.262161,256.506073 171.524323,256.012146 171.893234,255.259125 
	C176.751862,253.359879 181.503708,251.719772 187.002014,250.034821 
	C189.832321,248.659973 191.916153,247.329971 194.000000,246.000000 
	C196.425476,244.747040 198.828995,243.448746 201.284943,242.258713 
	C202.680618,241.582413 204.162125,241.083221 205.752762,241.093628 
	C199.593933,245.796188 193.287354,249.909424 186.980774,254.022675 
	C186.187637,254.268478 185.394485,254.514297 184.311630,254.886673 
	C179.956299,255.669479 175.890686,256.325745 171.412537,256.990997 
z"/>
<path fill="#D0D0D0" opacity="1.000000" stroke="none" 
	d="
M68.863113,250.687469 
	C66.106476,253.563721 61.854687,252.030396 60.005596,247.379623 
	C61.773281,246.355362 63.545952,245.711319 65.533607,244.989166 
	C66.525475,246.661987 67.625694,248.517563 68.863113,250.687469 
z"/>
<path fill="#BCBCBC" opacity="1.000000" stroke="none" 
	d="
M81.289841,266.918060 
	C80.533997,266.605103 80.046028,266.240234 79.289917,265.922729 
	C78.476997,265.170380 77.932213,264.370667 77.331329,263.268433 
	C79.399147,263.258759 81.523064,263.551605 83.646973,263.844482 
	C83.512344,264.425415 83.377716,265.006378 83.103493,265.841980 
	C82.495163,266.353149 82.026428,266.609650 81.289841,266.918060 
z"/>
<path fill="#D4D4D4" opacity="1.000000" stroke="none" 
	d="
M99.979492,266.638367 
	C99.257576,266.983795 98.494514,266.991821 97.349335,266.999878 
	C96.654747,266.536469 96.342285,266.073059 96.231361,265.202942 
	C96.709633,264.592834 96.898911,264.327118 97.000748,263.999115 
	C97.979950,264.766418 98.959152,265.533722 99.979492,266.638367 
z"/>
<path fill="#BABABA" opacity="1.000000" stroke="none" 
	d="
M87.978012,268.024841 
	C88.216087,267.440857 88.474770,266.833740 88.733452,266.226624 
	C88.945595,266.362732 89.157738,266.498871 89.369873,266.634979 
	C89.058685,267.022156 88.747498,267.409302 88.196190,267.924866 
	C87.956070,268.053253 87.998627,268.001709 87.978012,268.024841 
z"/>
<path fill="#BABABA" opacity="1.000000" stroke="none" 
	d="
M88.907089,269.024963 
	C88.848564,269.186096 88.498108,269.328003 88.088867,269.241180 
	C88.225105,269.010193 88.420135,269.007935 88.907089,269.024963 
z"/>
<path fill="#BABABA" opacity="1.000000" stroke="none" 
	d="
M90.920242,268.897125 
	C90.824173,269.089752 90.656967,269.086700 90.241562,269.047028 
	C90.278618,268.907410 90.563866,268.804443 90.920242,268.897125 
z"/>
<path fill="#DADADA" opacity="1.000000" stroke="none" 
	d="
M96.775307,264.106201 
	C96.898911,264.327118 96.709633,264.592834 96.211845,264.909607 
	C96.082520,264.687714 96.268875,264.417786 96.775307,264.106201 
z"/>
<path fill="#CBCBCB" opacity="1.000000" stroke="none" 
	d="
M187.162018,254.346832 
	C193.287354,249.909424 199.593933,245.796188 205.950256,241.341797 
	C206.166672,241.000397 206.333328,241.000183 207.084381,240.969513 
	C208.545074,240.720154 209.421417,240.501236 209.655151,240.442841 
	C210.604782,241.886307 211.298859,242.941315 212.100555,244.217468 
	C212.406601,244.716202 212.669113,244.904419 212.995239,245.252899 
	C212.994736,245.502563 213.002441,246.001831 213.002441,246.001831 
	C211.852951,246.540146 210.703461,247.078445 209.106522,247.580139 
	C208.107620,248.030243 207.556168,248.516953 207.004715,249.003662 
	C204.492401,250.151611 202.044205,251.491669 199.438995,252.361374 
	C198.248505,252.758804 196.748566,252.229248 195.176956,252.103104 
	C195.060287,253.295273 194.919067,254.738159 194.698792,256.988800 
	C192.055374,256.155823 189.699326,255.413422 187.162018,254.346832 
z"/>
<path fill="#D3D3D3" opacity="1.000000" stroke="none" 
	d="
M213.297913,245.982574 
	C213.002441,246.001831 212.994736,245.502563 212.997589,245.251038 
	C213.000427,244.999527 213.003967,244.994202 213.231827,244.850952 
	C213.306458,244.138474 213.153229,243.569244 212.997772,242.749237 
	C212.996368,242.331299 212.997223,242.164124 212.998077,241.996948 
	C214.142624,241.985931 215.287170,241.974915 216.724213,242.233246 
	C217.016724,242.502594 217.000977,242.999176 217.000580,243.249466 
	C217.000229,243.666626 217.000290,243.833496 216.996231,244.337662 
	C216.970383,245.124405 216.948624,245.573837 216.926865,246.023270 
	C215.815704,246.003281 214.704529,245.983307 213.297913,245.982574 
z"/>
<path fill="#C8C8C8" opacity="1.000000" stroke="none" 
	d="
M228.849716,232.309509 
	C229.383331,232.520355 229.773849,233.062119 230.133667,234.245056 
	C229.809494,236.198578 229.516037,237.510956 229.222595,238.823318 
	C229.018326,238.857269 228.814072,238.891205 228.301422,238.962585 
	C228.230896,236.880157 228.468765,234.760300 228.849716,232.309509 
z"/>
<path fill="#C1C1C1" opacity="1.000000" stroke="none" 
	d="
M222.006836,248.473694 
	C219.620575,247.132080 219.460876,245.752762 222.632339,243.487122 
	C222.323914,245.528381 222.158188,246.625092 222.018127,248.108734 
	C222.043777,248.495697 221.969070,248.436630 222.006836,248.473694 
z"/>
<path fill="#C1C1C1" opacity="1.000000" stroke="none" 
	d="
M222.471054,241.612122 
	C223.037857,241.032028 223.729324,240.751617 224.420807,240.471222 
	C224.479996,241.048294 224.539185,241.625351 224.598389,242.202423 
	C223.930817,242.105560 223.263275,242.008698 222.471054,241.612122 
z"/>
<path fill="#C2C2C2" opacity="1.000000" stroke="none" 
	d="
M208.466583,255.946320 
	C208.071991,256.595337 207.342636,257.266418 206.285309,257.934021 
	C206.682175,257.276489 207.406998,256.622437 208.466583,255.946320 
z"/>
<path fill="#D3D3D3" opacity="1.000000" stroke="none" 
	d="
M207.301971,248.982269 
	C207.556168,248.516953 208.107620,248.030243 208.829529,247.773956 
	C208.533081,248.323212 208.066162,248.642059 207.301971,248.982269 
z"/>
<path fill="#C2C2C2" opacity="1.000000" stroke="none" 
	d="
M199.999390,258.000000 
	C200.225189,257.467957 200.450958,256.935913 200.676727,256.403870 
	C200.891312,256.512360 201.105881,256.620850 201.320450,256.729340 
	C201.043594,257.080383 200.766739,257.431427 200.244934,257.891235 
	C200.000000,258.000000 199.999390,258.000000 199.999390,258.000000 
z"/>
<path fill="#C1C1C1" opacity="1.000000" stroke="none" 
	d="
M217.133804,246.177856 
	C216.948624,245.573837 216.970383,245.124405 217.246155,244.337677 
	C217.666916,244.000153 217.833633,243.999908 218.000366,243.999680 
	C217.780502,244.777267 217.560623,245.554855 217.133804,246.177856 
z"/>
<path fill="#BABABA" opacity="1.000000" stroke="none" 
	d="
M186.002136,265.213837 
	C186.123291,265.389008 186.065369,265.567932 186.007446,265.746826 
	C185.945969,265.570404 185.884521,265.393982 186.002136,265.213837 
z"/>
<path fill="#C1C1C1" opacity="1.000000" stroke="none" 
	d="
M217.000977,242.999176 
	C217.000977,242.999176 217.016724,242.502594 217.026520,242.254425 
	C217.036331,242.006241 217.520416,242.003708 217.762482,242.000015 
	C218.120483,242.276489 218.236420,242.556641 217.926422,242.918213 
	C217.500488,242.999619 217.000977,242.999176 217.000977,242.999176 
z"/>
<path fill="#C1C1C1" opacity="1.000000" stroke="none" 
	d="
M217.705246,249.566391 
	C217.836395,249.404129 218.066223,249.380737 218.296082,249.357346 
	C218.132034,249.473312 217.967987,249.589279 217.705246,249.566391 
z"/>
<path fill="#BABABA" opacity="1.000000" stroke="none" 
	d="
M186.692017,267.978699 
	C187.021866,268.160553 187.030136,268.333038 187.027924,268.764343 
	C186.695190,268.848358 186.372940,268.673523 185.890244,268.263916 
	C185.943344,268.009216 186.156906,267.989319 186.692017,267.978699 
z"/>
<path fill="#BABABA" opacity="1.000000" stroke="none" 
	d="
M188.688293,266.977905 
	C188.682861,267.133911 188.351349,267.280731 187.866257,267.228577 
	C187.929199,267.009308 188.145721,266.988983 188.688293,266.977905 
z"/>
<path fill="#BFBFBF" opacity="1.000000" stroke="none" 
	d="
M183.695786,268.973999 
	C183.690933,269.131531 183.354645,269.285858 182.861755,269.240173 
	C182.924866,269.016998 183.144623,268.993927 183.695786,268.973999 
z"/>
<path fill="#C2C2C2" opacity="1.000000" stroke="none" 
	d="
M200.000000,258.000000 
	C199.900635,258.033905 199.801254,258.067810 199.850632,258.050842 
	C199.999390,258.000000 200.000000,258.000000 200.000000,258.000000 
z"/>
<path fill="#CBCBCB" opacity="1.000000" stroke="none" 
	d="
M217.000580,243.249466 
	C217.000977,242.999176 217.500488,242.999619 217.750519,243.000061 
	C218.000534,243.000504 218.000137,243.500244 218.000244,243.749969 
	C217.833633,243.999908 217.666916,244.000153 217.250259,244.000366 
	C217.000290,243.833496 217.000229,243.666626 217.000580,243.249466 
z"/>
<path fill="#C6C6C6" opacity="1.000000" stroke="none" 
	d="
M11.006113,170.558319 
	C9.684846,171.145203 8.363852,171.321960 7.015780,171.773102 
	C6.652331,169.959244 6.315958,167.871002 5.956189,165.406616 
	C9.907485,164.472580 11.461352,166.314621 11.006113,170.558319 
z"/>
<path fill="#C6C6C6" opacity="1.000000" stroke="none" 
	d="
M5.059844,158.389160 
	C6.038159,158.604462 6.981160,159.223312 7.924160,159.842163 
	C7.249800,160.554565 6.575438,161.266968 5.538105,162.001678 
	C5.124932,160.946884 5.074731,159.869797 5.059844,158.389160 
z"/>
<path fill="#D4D4D4" opacity="1.000000" stroke="none" 
	d="
M3.715854,147.120239 
	C4.134372,147.574234 4.298877,148.153366 4.216769,148.868759 
	C3.800718,148.418472 3.631279,147.831924 3.715854,147.120239 
z"/>
<path fill="#A2A2A2" opacity="1.000000" stroke="none" 
	d="
M269.205170,141.965790 
	C268.930237,140.549149 269.056152,139.144165 269.182037,137.739166 
	C269.360565,137.731155 269.539093,137.723160 269.717590,137.715149 
	C269.872498,138.869843 270.027374,140.024521 270.293762,141.545288 
	C270.138824,141.933380 269.872406,141.955414 269.205170,141.965790 
z"/>
<path fill="#C6C6C6" opacity="1.000000" stroke="none" 
	d="
M48.004028,230.000000 
	C47.190174,229.084564 46.376320,228.169128 45.075092,226.862030 
	C43.725147,226.313370 42.862576,226.156387 41.632652,225.954834 
	C40.371464,223.972656 39.477623,222.035065 38.583786,220.097458 
	C36.888290,218.138855 35.286716,216.010834 34.004272,213.705307 
	C31.705359,209.572418 30.218243,204.816818 27.260372,201.263275 
	C23.211554,196.399094 20.044630,191.540054 19.847975,185.043991 
	C19.836681,184.670914 17.990721,184.353363 16.667194,184.006226 
	C15.893983,183.999084 15.452184,183.995712 15.000572,183.745270 
	C14.990760,183.498199 14.965070,183.004349 14.965070,183.004349 
	C16.571074,178.578461 12.201452,175.111649 13.014780,170.399994 
	C15.199135,167.861938 14.437278,163.717041 11.987456,161.086258 
	C10.855814,159.871017 9.691575,156.960007 10.304543,156.147552 
	C12.847653,152.776871 10.017260,147.098053 15.577152,145.039139 
	C17.860394,162.142822 22.005335,178.711838 30.983011,193.560028 
	C36.351604,202.439133 42.975754,210.559097 49.113064,219.329041 
	C51.436966,223.858734 53.683342,228.079712 55.565800,232.649567 
	C53.134060,232.666229 51.066238,232.334030 48.998417,232.001831 
	C48.998417,232.001831 49.000000,232.000000 48.979717,231.702789 
	C48.640965,230.937073 48.322495,230.468536 48.004028,230.000000 
z"/>
<path fill="#C6C6C6" opacity="1.000000" stroke="none" 
	d="
M15.475402,132.985703 
	C15.887727,135.362122 15.924332,137.747131 15.909983,140.577179 
	C14.458549,141.192078 13.058071,141.361938 10.546031,141.666641 
	C12.389872,140.302582 13.399544,139.555634 14.358604,138.846115 
	C13.912290,136.687241 8.335498,133.987991 15.475402,132.985703 
z"/>
<path fill="#B8B8B8" opacity="1.000000" stroke="none" 
	d="
M44.826981,48.350815 
	C46.139496,46.819981 47.302624,45.589050 48.742226,44.197350 
	C51.062164,49.063080 45.247742,49.436806 44.358086,52.726566 
	C43.955833,52.568077 43.553577,52.409588 43.151325,52.251095 
	C43.660080,51.050972 44.168835,49.850845 44.826981,48.350815 
z"/>
<path fill="#C6C6C6" opacity="1.000000" stroke="none" 
	d="
M15.858394,121.108841 
	C16.178715,122.159996 16.109827,123.198685 15.997643,124.627701 
	C14.720959,124.851341 13.487568,124.684654 12.254177,124.517975 
	C12.117196,124.124832 11.980216,123.731697 11.843235,123.338554 
	C13.051885,122.591164 14.260534,121.843765 15.858394,121.108841 
z"/>
<path fill="#C6C6C6" opacity="1.000000" stroke="none" 
	d="
M6.014627,133.457062 
	C6.414067,134.043259 6.512029,134.625519 6.609990,135.207794 
	C6.199123,135.203125 5.788257,135.198441 5.377392,135.193756 
	C5.489311,134.613541 5.601230,134.033340 6.014627,133.457062 
z"/>
<path fill="#C6C6C6" opacity="1.000000" stroke="none" 
	d="
M9.392742,147.468719 
	C8.940595,147.352112 8.663169,147.067032 8.407312,146.763748 
	C8.400609,146.755798 8.629135,146.549408 8.747964,146.435562 
	C9.022085,146.722977 9.296208,147.010391 9.392742,147.468719 
z"/>
<path fill="#9A9A9A" opacity="1.000000" stroke="none" 
	d="
M54.113167,39.960335 
	C53.870567,40.376961 53.627968,40.793583 53.385368,41.210205 
	C53.443382,40.841099 53.501396,40.471996 53.794678,40.026939 
	C54.029949,39.950993 54.113167,39.960335 54.113167,39.960335 
z"/>
<path fill="#9A9A9A" opacity="1.000000" stroke="none" 
	d="
M57.753166,35.945244 
	C57.846298,36.363346 57.696690,37.007092 57.264137,37.830215 
	C57.157608,37.396690 57.334019,36.783791 57.753166,35.945244 
z"/>
<path fill="#9A9A9A" opacity="1.000000" stroke="none" 
	d="
M56.797501,38.056190 
	C57.001495,38.152382 57.002693,38.325752 57.003677,38.759396 
	C56.867210,38.724232 56.730961,38.428799 56.797501,38.056190 
z"/>
<path fill="#B8B8B8" opacity="1.000000" stroke="none" 
	d="
M54.038017,39.909904 
	C54.150700,39.862679 54.255306,39.856533 54.236542,39.905361 
	C54.113167,39.960335 54.029949,39.950993 54.038017,39.909904 
z"/>
<path fill="#9A9A9A" opacity="1.000000" stroke="none" 
	d="
M60.753525,34.049301 
	C60.768929,34.235191 60.522118,34.542213 59.975082,34.921101 
	C59.947006,34.718788 60.219158,34.444611 60.753525,34.049301 
z"/>
<path fill="#C6C6C6" opacity="1.000000" stroke="none" 
	d="
M261.995117,105.993729 
	C262.091187,105.955902 262.192047,105.924057 262.152161,105.950546 
	C262.011414,106.008873 261.999878,105.999710 261.995117,105.993729 
z"/>
<path fill="#9B9B9B" opacity="1.000000" stroke="none" 
	d="
M142.524323,9.013234 
	C142.993942,9.498874 143.003464,9.928310 143.007812,10.680067 
	C142.177032,11.030610 141.095566,10.729073 140.566513,11.139529 
	C136.548843,14.256689 132.917633,12.581459 129.055145,10.147783 
	C133.244324,9.548020 137.654282,9.252525 142.524323,9.013234 
z"/>
<path fill="#ACACAC" opacity="1.000000" stroke="none" 
	d="
M123.329948,12.934101 
	C122.986755,12.317064 122.986023,11.663442 122.978455,10.685789 
	C123.561134,10.343694 124.150642,10.325628 124.924896,10.551432 
	C124.630562,11.496039 124.151482,12.196777 123.329948,12.934101 
z"/>
<path fill="#BEBEBE" opacity="1.000000" stroke="none" 
	d="
M212.997894,38.001640 
	C212.876831,37.862213 212.757904,37.721142 212.638977,37.580074 
	C212.723022,37.628605 212.807098,37.677132 212.947205,37.860680 
	C213.003265,37.995701 213.000000,38.000000 212.997894,38.001640 
z"/>
<path fill="#BABABA" opacity="1.000000" stroke="none" 
	d="
M106.939850,17.877235 
	C106.271378,18.456514 105.468399,18.728592 104.331055,18.995609 
	C104.044594,17.924870 104.092514,16.859188 104.169327,15.151083 
	C105.327347,16.213747 106.066345,16.891890 106.939850,17.877235 
z"/>
<path fill="#BABABA" opacity="1.000000" stroke="none" 
	d="
M69.265884,260.926147 
	C68.743042,260.173981 68.465424,259.375427 68.027481,258.292236 
	C68.579185,258.489594 69.291222,258.971558 70.085526,259.798645 
	C70.026711,260.458557 69.807816,260.703857 69.265884,260.926147 
z"/>
<path fill="#D0D0D0" opacity="1.000000" stroke="none" 
	d="
M51.851425,246.722717 
	C51.619282,246.901062 51.339848,246.737640 51.000893,246.238922 
	C51.157547,246.184921 51.445133,246.344040 51.851425,246.722717 
z"/>
<path fill="#CBCBCB" opacity="1.000000" stroke="none" 
	d="
M16.998608,184.009979 
	C17.990721,184.353363 19.836681,184.670914 19.847975,185.043991 
	C20.044630,191.540054 23.211554,196.399094 27.260372,201.263275 
	C30.218243,204.816818 31.705359,209.572418 34.004272,213.705307 
	C35.286716,216.010834 36.888290,218.138855 38.583786,220.097458 
	C39.477623,222.035065 40.371464,223.972656 41.668518,226.267746 
	C42.713783,227.415619 43.355831,228.206009 43.997883,228.996399 
	C43.226627,229.329880 42.455368,229.663345 41.239906,229.781342 
	C40.599499,229.290955 40.338615,229.108566 40.013062,229.018692 
	C40.013062,229.018692 39.999416,229.000900 39.987595,228.995132 
	C39.158279,228.093674 38.340790,227.197983 37.147415,225.932861 
	C36.567265,225.282684 36.295502,225.105316 35.956242,225.031342 
	C35.110832,225.624161 34.265427,226.216965 33.149414,227.009155 
	C32.154495,227.118515 31.430185,227.028519 30.342197,226.980194 
	C30.221655,223.667740 29.243692,221.047424 25.354195,219.986542 
	C23.281569,215.479797 21.765257,210.858688 19.824444,206.423309 
	C18.479767,203.350281 16.549986,200.533279 15.142834,197.276184 
	C16.713089,196.834091 18.022150,196.717697 19.438705,196.591751 
	C18.364780,193.919342 17.519663,191.816315 16.503979,189.288834 
	C15.537717,191.463562 14.721598,193.300369 13.905479,195.137192 
	C13.556546,194.311310 13.207612,193.485443 13.050303,192.154114 
	C13.817646,190.091827 14.393363,188.534988 15.316883,186.934326 
	C16.109327,185.930328 16.553968,184.970154 16.998608,184.009979 
z"/>
<path fill="#E1E1E1" opacity="1.000000" stroke="none" 
	d="
M13.927169,195.393356 
	C14.721598,193.300369 15.537717,191.463562 16.503979,189.288834 
	C17.519663,191.816315 18.364780,193.919342 19.438705,196.591751 
	C18.022150,196.717697 16.713089,196.834091 14.988628,196.959381 
	C14.365107,196.528702 14.156982,196.089111 13.927169,195.393356 
z"/>
<path fill="#E1E1E1" opacity="1.000000" stroke="none" 
	d="
M14.969078,186.978134 
	C14.393363,188.534988 13.817646,190.091827 12.924549,191.828827 
	C12.205829,191.088120 11.804488,190.167297 11.145507,189.064545 
	C11.188194,188.104263 11.488523,187.325897 11.907751,186.250916 
	C12.026651,185.954300 12.021915,185.641403 12.225779,185.289185 
	C12.630080,184.601517 12.830519,184.266052 13.030956,183.930603 
	C13.487919,183.636551 13.944881,183.342499 14.683457,183.026398 
	C14.965070,183.004349 14.990760,183.498199 14.994900,184.118896 
	C14.989052,185.485779 14.979064,186.231949 14.969078,186.978134 
z"/>
<path fill="#ACACAC" opacity="1.000000" stroke="none" 
	d="
M9.520851,180.542725 
	C9.443789,180.584396 9.417562,180.400803 9.417562,180.400803 
	C9.417562,180.400803 9.597915,180.501053 9.520851,180.542725 
z"/>
<path fill="#A2A2A2" opacity="1.000000" stroke="none" 
	d="
M12.763338,184.084061 
	C12.830519,184.266052 12.630080,184.601517 12.201849,185.134552 
	C12.147944,184.967270 12.321832,184.602402 12.763338,184.084061 
z"/>
<path fill="#D0D0D0" opacity="1.000000" stroke="none" 
	d="
M36.073437,225.246552 
	C36.295502,225.105316 36.567265,225.282684 36.877167,225.787262 
	C36.653145,225.922592 36.389088,225.739487 36.073437,225.246552 
z"/>
<path fill="#EAEAEA" opacity="1.000000" stroke="none" 
	d="
M229.517792,238.858246 
	C229.516037,237.510956 229.809494,236.198578 230.246536,234.570282 
	C232.133484,232.713043 233.876846,231.171722 235.815582,229.902161 
	C235.141052,231.937424 234.271133,233.700943 232.920074,235.869446 
	C232.290436,236.644928 232.141937,237.015411 231.993439,237.385895 
	C231.591385,237.834030 231.189316,238.282166 230.596832,238.829788 
	C230.208618,238.917236 230.010803,238.905212 229.517792,238.858246 
z"/>
<path fill="#B8B8B8" opacity="1.000000" stroke="none" 
	d="
M239.003555,225.001373 
	C239.324310,224.186279 239.645081,223.371201 240.291290,222.135223 
	C241.411835,221.488983 242.206894,221.263626 243.001968,221.038269 
	C243.001968,221.038269 243.012970,221.020340 243.021149,221.012177 
	C244.787308,223.780563 242.173309,223.910248 240.169525,224.891769 
	C239.391510,225.014175 239.197540,225.007767 239.003555,225.001373 
z"/>
<path fill="#EAEAEA" opacity="1.000000" stroke="none" 
	d="
M246.287933,216.024292 
	C245.133850,214.649246 244.222321,213.265457 242.874588,211.219513 
	C244.479538,211.583023 245.349915,211.780167 246.571869,212.330353 
	C246.940048,213.129379 246.956650,213.575333 246.970428,214.348984 
	C246.983429,215.113266 246.999237,215.549866 247.015045,215.986465 
	C247.015045,215.986465 246.530487,216.015549 246.287933,216.024292 
z"/>
<path fill="#EAEAEA" opacity="1.000000" stroke="none" 
	d="
M244.417114,220.976578 
	C244.531036,219.371307 245.021500,217.708939 245.772583,216.044754 
	C245.620026,217.668442 245.206848,219.293976 244.417114,220.976578 
z"/>
<path fill="#EAEAEA" opacity="1.000000" stroke="none" 
	d="
M251.005524,205.986664 
	C251.832077,205.741913 252.658630,205.497147 253.811798,205.262482 
	C253.381989,206.190338 252.625565,207.108109 251.559082,208.078857 
	C251.198471,207.660782 251.147949,207.189743 251.046204,206.361725 
	C250.994995,206.004776 251.005524,205.986679 251.005524,205.986664 
z"/>
<path fill="#B6B6B6" opacity="1.000000" stroke="none" 
	d="
M238.793243,225.007843 
	C239.197540,225.007767 239.391510,225.014175 239.876709,225.040833 
	C239.785706,228.382385 239.785706,228.382385 237.975311,227.286911 
	C237.927017,226.743195 238.072311,226.446533 238.102783,225.818756 
	C238.046036,225.330215 238.104080,225.172806 238.162140,225.015381 
	C238.162140,225.015381 238.582947,225.014328 238.793243,225.007843 
z"/>
<path fill="#BABABA" opacity="1.000000" stroke="none" 
	d="
M246.973251,214.021301 
	C246.956650,213.575333 246.940048,213.129379 246.896790,212.349884 
	C247.383606,212.006271 247.897079,211.996185 248.795105,212.011185 
	C248.863739,212.507477 248.547821,212.978699 247.878937,213.728577 
	C247.341721,214.011917 247.157486,214.016617 246.973251,214.021301 
z"/>
<path fill="#CDCDCD" opacity="1.000000" stroke="none" 
	d="
M246.970428,214.348984 
	C247.157486,214.016617 247.341721,214.011917 247.802887,214.002243 
	C247.886185,214.605743 247.692581,215.214249 247.257004,215.904602 
	C246.999237,215.549866 246.983429,215.113266 246.970428,214.348984 
z"/>
<path fill="#BABABA" opacity="1.000000" stroke="none" 
	d="
M250.074799,212.323395 
	C249.941177,211.883942 249.970764,211.638916 250.031433,211.021912 
	C250.121017,211.272568 250.179520,211.895218 250.074799,212.323395 
z"/>
<path fill="#C1C1C1" opacity="1.000000" stroke="none" 
	d="
M232.200897,237.184906 
	C232.141937,237.015411 232.290436,236.644928 232.714569,236.145264 
	C232.796249,236.338699 232.602295,236.661316 232.200897,237.184906 
z"/>
<path fill="#293051" opacity="1.000000" stroke="none" 
	d="
M43.581238,187.348053 
	C9.854622,124.178795 41.863125,49.543777 109.967697,31.759544 
	C172.855988,15.337446 236.349274,60.000404 242.206894,124.780312 
	C247.479782,183.093536 205.876511,235.142471 147.976913,240.621521 
	C102.687843,244.907196 67.741455,226.512619 43.581238,187.348053 
M125.989517,156.627213 
	C125.989517,159.376053 125.989517,162.124893 125.989517,164.635071 
	C130.893951,164.635071 135.126465,164.635071 139.944809,164.635071 
	C137.627823,151.627747 144.798798,143.670898 153.658508,136.364227 
	C158.654068,132.244370 163.417419,127.754669 167.776306,122.967995 
	C179.837875,109.722641 179.314255,78.766594 153.962891,71.680565 
	C136.071732,66.679771 119.162132,70.331581 102.557297,78.649895 
	C104.652023,83.349457 106.584770,87.685623 108.624184,92.261101 
	C110.456802,91.446953 111.954880,90.800911 113.436867,90.119873 
	C123.019463,85.716309 133.030014,83.734055 143.555527,85.010612 
	C153.867737,86.261307 160.017899,93.231529 158.722931,103.470505 
	C158.152237,107.982864 156.070068,112.857086 153.220474,116.396797 
	C149.089508,121.528221 143.709763,125.676346 138.737656,130.103516 
	C131.049637,136.948944 126.291969,145.189606 125.989517,156.627213 
M139.051682,200.957520 
	C145.787506,197.932678 146.199463,187.527023 143.622543,182.490005 
	C141.515411,178.371277 137.949997,176.672668 133.425674,176.677704 
	C129.207550,176.682388 125.541718,177.760132 123.293793,181.690216 
	C120.805618,186.040298 121.147064,194.861221 124.179588,198.282578 
	C128.083542,202.687088 133.032593,202.923004 139.051682,200.957520 
z"/>
<path fill="#CBCBCB" opacity="1.000000" stroke="none" 
	d="
M49.030918,232.331848 
	C51.066238,232.334030 53.134060,232.666229 55.601013,232.998932 
	C56.493690,233.261887 56.987232,233.524368 57.739700,233.893738 
	C57.210491,235.240417 56.422352,236.480209 55.317749,237.860016 
	C53.021992,236.220612 51.042706,234.441238 49.030918,232.331848 
z"/>
<path fill="#C6C6C6" opacity="1.000000" stroke="none" 
	d="
M212.998627,241.568817 
	C212.997223,242.164124 212.996368,242.331299 212.997894,243.000305 
	C212.999985,243.669510 212.999695,243.836899 212.747803,243.999420 
	C212.328445,243.995163 212.160690,243.995743 211.992935,243.996323 
	C211.298859,242.941315 210.604782,241.886307 209.655151,240.442841 
	C209.421417,240.501236 208.545074,240.720154 207.334381,240.968933 
	C208.770874,239.367340 210.541748,237.735916 212.656311,236.052246 
	C212.999725,237.713562 212.999435,239.427109 212.998627,241.568817 
z"/>
<path fill="#C6C6C6" opacity="1.000000" stroke="none" 
	d="
M193.637054,246.037613 
	C191.916153,247.329971 189.832321,248.659973 187.373932,249.994980 
	C189.090973,248.691757 191.182556,247.383499 193.637054,246.037613 
z"/>
<path fill="#E1E1E1" opacity="1.000000" stroke="none" 
	d="
M242.895599,220.812286 
	C242.206894,221.263626 241.411835,221.488983 240.313522,221.804382 
	C240.010284,221.894424 240.017761,221.444305 240.014023,221.219208 
	C240.476944,220.673141 240.943604,220.352173 241.708984,220.008713 
	C242.332397,220.102661 242.592911,220.302689 242.895599,220.812286 
z"/>
<path fill="#EAEAEA" opacity="1.000000" stroke="none" 
	d="
M250.986389,206.012421 
	C250.564041,205.899429 250.150299,205.778809 249.736557,205.658203 
	C250.062866,205.651398 250.389191,205.644577 250.860504,205.812225 
	C251.005524,205.986679 250.994995,206.004776 250.986389,206.012421 
z"/>
<path fill="#EAEAEA" opacity="1.000000" stroke="none" 
	d="
M248.013031,207.722672 
	C247.963516,207.723114 248.062546,207.722244 248.013031,207.722672 
z"/>
<path fill="#C6C6C6" opacity="1.000000" stroke="none" 
	d="
M252.447083,196.530609 
	C252.411942,196.472672 252.482224,196.588562 252.447083,196.530609 
z"/>
<path fill="#E1E1E1" opacity="1.000000" stroke="none" 
	d="
M237.873413,224.987381 
	C238.104080,225.172806 238.046036,225.330215 237.899872,225.723358 
	C237.532150,225.819931 237.313293,225.615677 237.080902,225.128174 
	C237.199310,224.926498 237.391998,224.942947 237.873413,224.987381 
z"/>
<path fill="#CBCBCB" opacity="1.000000" stroke="none" 
	d="
M44.244419,228.830109 
	C43.355831,228.206009 42.713783,227.415619 42.035866,226.312317 
	C42.862576,226.156387 43.725147,226.313370 44.793358,226.732178 
	C44.829651,227.550583 44.660305,228.107208 44.244419,228.830109 
z"/>
<path fill="#CBCBCB" opacity="1.000000" stroke="none" 
	d="
M47.773705,230.170120 
	C48.322495,230.468536 48.640965,230.937073 48.978745,231.703613 
	C48.513168,231.447830 48.028278,230.894028 47.773705,230.170120 
z"/>
<path fill="#E1E1E1" opacity="1.000000" stroke="none" 
	d="
M40.117767,229.237549 
	C40.338615,229.108566 40.599499,229.290955 40.902493,229.784058 
	C40.685093,229.909531 40.422825,229.727570 40.117767,229.237549 
z"/>
<path fill="#D3D3D3" opacity="1.000000" stroke="none" 
	d="
M212.100555,244.217468 
	C212.160690,243.995743 212.328445,243.995163 212.748627,244.246887 
	C213.001038,244.499176 213.003967,244.994202 213.003967,244.994202 
	C213.003967,244.994202 213.000427,244.999527 212.998077,245.001373 
	C212.669113,244.904419 212.406601,244.716202 212.100555,244.217468 
z"/>
<path fill="#CBCBCB" opacity="1.000000" stroke="none" 
	d="
M213.231827,244.850952 
	C213.003967,244.994202 213.001038,244.499176 213.000214,244.251724 
	C212.999695,243.836899 212.999985,243.669510 213.000122,243.251068 
	C213.153229,243.569244 213.306458,244.138474 213.231827,244.850952 
z"/>
<path fill="#D1D1D1" opacity="1.000000" stroke="none" 
	d="
M15.316880,186.934326 
	C14.979064,186.231949 14.989052,185.485779 15.004711,184.365967 
	C15.452184,183.995712 15.893983,183.999084 16.667196,184.006226 
	C16.553968,184.970154 16.109327,185.930328 15.316880,186.934326 
z"/>
<path fill="#FBFBFC" opacity="1.000000" stroke="none" 
	d="
M125.997498,156.157471 
	C126.291969,145.189606 131.049637,136.948944 138.737656,130.103516 
	C143.709763,125.676346 149.089508,121.528221 153.220474,116.396797 
	C156.070068,112.857086 158.152237,107.982864 158.722931,103.470505 
	C160.017899,93.231529 153.867737,86.261307 143.555527,85.010612 
	C133.030014,83.734055 123.019463,85.716309 113.436867,90.119873 
	C111.954880,90.800911 110.456802,91.446953 108.624184,92.261101 
	C106.584770,87.685623 104.652023,83.349457 102.557297,78.649895 
	C119.162132,70.331581 136.071732,66.679771 153.962891,71.680565 
	C179.314255,78.766594 179.837875,109.722641 167.776306,122.967995 
	C163.417419,127.754669 158.654068,132.244370 153.658508,136.364227 
	C144.798798,143.670898 137.627823,151.627747 139.944809,164.635071 
	C135.126465,164.635071 130.893951,164.635071 125.989517,164.635071 
	C125.989517,162.124893 125.989517,159.376053 125.997498,156.157471 
z"/>
<path fill="#FCFCFD" opacity="1.000000" stroke="none" 
	d="
M138.676285,201.101379 
	C133.032593,202.923004 128.083542,202.687088 124.179588,198.282578 
	C121.147064,194.861221 120.805618,186.040298 123.293793,181.690216 
	C125.541718,177.760132 129.207550,176.682388 133.425674,176.677704 
	C137.949997,176.672668 141.515411,178.371277 143.622543,182.490005 
	C146.199463,187.527023 145.787506,197.932678 138.676285,201.101379 
z"/>
</svg>