<!--?xml version="1.0" encoding="utf-8"?-->
<!-- Svg Vector Icons : http://www.onlinewebfonts.com/icon -->

<svg version="1.1" xmlns="http://www.w3.org/2000/svg" xmlns:xlink="http://www.w3.org/1999/xlink" x="0px" y="0px" viewBox="0 0 256 256" enable-background="new 0 0 256 256" xml:space="preserve">
<metadata> Svg Vector Icons : http://www.onlinewebfonts.com/icon </metadata>
<g><g><g><path fill="#282f51" data-title="Layer 0" xs="0" d="M206.7,19.1l-8.9,8.9L213,43.2l15.2,15.2l8.9-8.9l8.9-8.9l-15.3-15.3l-15.2-15.2L206.7,19.1z"/><path fill="#282f51" data-title="Layer 1" xs="1" d="M10,140.2v105.5h81.6h81.6l24.1-24.1l24.1-24.1v-59.2V79.1l-4.8,4.8l-4.8,4.8v49.7v49.8h-24.2h-24.2v24v24h-72h-72v-95.9V44.3h74h74l4.8-4.8l4.8-4.8H93.6H10V140.2z M198,207.7c-5.4,5.4-13.2,13.1-17.4,17.1l-7.6,7.2v-17.1v-17.1h17.4h17.4L198,207.7z"/><path fill="#282f51" data-title="Layer 2" xs="2" d="M145.3,80.5l-45.8,45.8l1.7,1.7l1.7,1.7l45.8-45.8l45.8-45.8l-1.7-1.7l-1.7-1.7L145.3,80.5z"/><path fill="#282f51" data-title="Layer 3" xs="3" d="M155.4,91l-45.7,45.7l5,5l5,5l45.8-45.8l45.8-45.8l-4.9-4.9c-2.7-2.7-5-4.9-5.2-4.9C201.2,45.3,180.6,65.8,155.4,91z"/><path fill="#282f51" data-title="Layer 4" xs="4" d="M172.2,107.8l-45.7,45.7l1.7,1.6l1.7,1.6l45.8-45.8l45.8-45.8l-1.5-1.5c-0.9-0.9-1.6-1.6-1.8-1.6C218,62,197.4,82.6,172.2,107.8z"/><path fill="#282f51" data-title="Layer 5" xs="5" d="M95.7,131c-0.1,0.5-1.5,5.3-3.1,10.7c-3.9,13.4-8.2,30.2-7.7,30.2c1.4,0,36.5-9.6,41.2-11.3c0.5-0.1-4.4-5.3-14.3-15.3c-8.3-8.3-15.3-15.1-15.4-15.1C96.1,130.2,95.8,130.5,95.7,131z M108.3,148.6c7.2,7.2,9.1,9.4,8.5,9.6c-0.4,0.1-3.5,1.1-6.9,2.1l-6.1,1.8l-4.7-4.7l-4.7-4.7l0.8-2.8c2.1-7.2,3.2-10.7,3.5-10.7C98.8,139.3,103.2,143.5,108.3,148.6z"/><path fill="#282f51" data-title="Layer 6" xs="6" d="M65.1,164.8c-2.2,2.7-4.7,6-5.6,7.4l-1.6,2.4l-7.3,0.3c-8.7,0.4-10,0.7-10.6,2.4c-0.3,1.1-0.2,1.5,0.5,2.2c0.9,0.9,1.3,0.9,7.3,0.4c3.5-0.3,6.5-0.4,6.6-0.2c0.1,0.1-0.5,1.9-1.5,3.9c-6.9,14.9-1.6,29.1,12,32.7c9.9,2.5,19.6-2,24-11.4c3.9-8.3,2.9-16.5-2.8-22.1c-4.2-4.1-9.9-6.4-18.2-7.5c-2.1-0.2-3.9-0.5-4-0.7c-0.1-0.1,1.8-2.9,4.4-6.1c2.5-3.2,4.6-6.1,4.6-6.3c0-1.2-1.1-2.3-2.4-2.3C69.2,159.9,68.5,160.6,65.1,164.8z M72.6,181c6.3,1.6,10.2,4.2,12.4,8.2c2.5,4.6,1.5,11.9-2.3,16.9c-7,9.2-22.2,7.5-26.8-2.9c-1.3-3.2-1.6-8.3-0.7-12c0.9-3.4,2.6-7.5,4.2-10.1l1-1.6l4.3,0.3C67.2,180,70.7,180.5,72.6,181z"/></g></g></g>
</svg>