<?xml version="1.0" standalone="no"?>
<!DOCTYPE svg PUBLIC "-//W3C//DTD SVG 20010904//EN"
 "http://www.w3.org/TR/2001/REC-SVG-20010904/DTD/svg10.dtd">
<svg version="1.0" xmlns="http://www.w3.org/2000/svg"
 width="270.000000pt" height="270.000000pt" viewBox="0 0 270.000000 270.000000"
 preserveAspectRatio="xMidYMid meet">
<metadata>
Created by potrace 1.16, written by Peter Selinger 2001-2019
</metadata>
<g transform="translate(0.000000,270.000000) scale(0.100000,-0.100000)"
fill="#000000" stroke="none">
<path d="M5 2690 c-1 -3 -3 -20 -3 -38 0 -22 3 -30 11 -26 8 5 8 3 0 -7 -21
-22 -15 -35 17 -33 17 1 30 -3 30 -8 0 -6 -9 -8 -19 -5 -10 2 -25 1 -32 -4
-12 -8 -11 -11 1 -20 11 -8 12 -12 3 -16 -20 -7 -16 -43 5 -44 15 0 14 -2 -3
-10 -16 -7 -12 -8 17 -6 29 2 36 -1 35 -15 -1 -14 -4 -15 -16 -5 -12 9 -13 9
-7 0 4 -7 2 -13 -3 -13 -6 0 -11 5 -11 11 0 8 -5 8 -15 -1 -23 -19 -18 -40 9
-40 14 0 28 -4 31 -10 4 -6 -6 -7 -25 -4 -19 4 -30 2 -30 -5 0 -6 5 -12 10
-12 6 -1 15 -3 20 -4 6 -1 18 -4 28 -5 12 -1 10 -4 -8 -9 -14 -4 -31 -3 -38 2
-9 7 -12 4 -12 -12 0 -17 6 -21 31 -21 16 0 28 -4 25 -9 -4 -5 -17 -8 -31 -6
-16 1 -25 -3 -25 -11 0 -9 11 -14 30 -14 17 0 30 -4 30 -9 0 -4 -8 -8 -17 -8
-37 0 -43 -4 -43 -27 0 -13 8 -27 18 -31 16 -6 16 -7 -1 -19 -23 -18 -21 -34
6 -39 l22 -4 -22 -2 c-42 -2 -23 -21 20 -20 23 1 47 0 52 -1 24 -6 44 1 49 18
3 10 4 6 3 -8 -1 -17 -9 -26 -22 -28 -85 -11 -95 -11 -89 0 4 6 1 9 -6 6 -24
-8 -37 -37 -21 -47 11 -7 11 -9 0 -14 -8 -2 21 -4 64 -2 42 1 77 -2 77 -7 0
-16 38 12 61 44 16 22 17 28 6 19 -12 -9 -17 -10 -17 -2 0 8 -5 9 -19 1 -26
-13 -34 -13 -28 3 2 6 15 13 28 13 49 3 51 4 45 20 -6 15 -4 15 11 3 11 -9 14
-10 9 -1 -4 6 -3 12 3 12 6 0 15 8 20 18 9 16 6 18 -20 14 -20 -3 -29 0 -29
10 0 10 10 13 35 10 29 -4 39 1 69 34 19 21 32 42 29 48 -3 5 -1 6 4 3 13 -8
36 17 25 27 -4 4 -2 6 4 4 6 -1 27 12 48 30 23 20 32 34 24 36 -39 13 -39 15
1 13 41 -1 47 2 83 43 21 25 38 39 38 32 0 -7 16 -2 42 15 37 25 39 28 20 31
-12 2 -22 8 -22 13 0 10 20 13 63 10 16 -1 34 2 40 7 7 5 33 17 60 27 26 10
47 22 47 27 0 6 -7 8 -15 5 -8 -4 -17 -2 -20 3 -5 8 66 16 98 11 4 0 7 3 7 9
0 5 7 7 15 4 8 -4 15 -2 15 4 0 5 10 10 23 10 24 0 166 28 172 34 3 2 -97 4
-220 4 -124 0 -225 -4 -225 -8 0 -5 -6 -6 -12 -2 -20 13 -118 12 -118 0 0 -7
-3 -8 -8 -1 -8 13 -202 15 -202 2 0 -4 -6 -5 -12 0 -14 9 -318 12 -323 3z"/>
<path d="M1650 2685 c0 -13 103 -36 128 -29 14 5 15 4 2 -5 -13 -9 -12 -11 5
-13 59 -6 125 -2 125 7 0 5 5 3 10 -5 5 -8 10 -19 10 -25 0 -5 -4 -4 -9 4 -6
9 -11 10 -15 2 -4 -6 -13 -8 -19 -4 -27 17 -40 11 -17 -7 29 -22 64 -31 103
-26 15 2 27 -1 27 -5 0 -5 -10 -9 -22 -9 -12 0 -18 -3 -14 -7 4 -4 50 -10 102
-13 94 -5 110 0 82 29 -11 10 -10 11 5 6 9 -4 17 -13 17 -21 0 -10 13 -14 41
-14 24 0 38 4 34 10 -3 6 -19 10 -36 10 -16 0 -29 4 -29 9 0 17 60 0 86 -24
l26 -24 -126 2 c-69 1 -126 -1 -126 -4 0 -8 76 -56 101 -64 17 -6 21 -4 16 7
-3 8 1 15 9 15 7 0 15 -6 18 -13 4 -9 13 -11 35 -4 17 5 33 5 36 1 4 -8 58 -6
83 4 6 2 12 0 12 -5 0 -9 49 -8 66 2 5 4 16 3 23 -2 8 -4 27 -4 44 1 16 5 37
5 45 0 20 -11 54 -2 45 13 -3 6 -3 8 2 4 4 -4 15 -2 23 5 13 10 14 9 5 -8 -10
-18 -8 -20 27 -20 21 0 36 4 33 9 -3 4 4 5 16 1 18 -5 21 -2 21 24 0 36 21 33
-222 32 -100 0 -170 4 -174 10 -3 6 28 9 88 8 126 -1 123 -2 109 15 -9 11 -6
15 19 18 16 3 30 1 30 -4 0 -4 -7 -8 -15 -8 -18 0 -20 -17 -2 -23 6 -2 24 0
39 4 18 5 29 3 32 -4 3 -9 5 -9 5 0 1 8 10 9 31 3 17 -5 30 -5 30 0 0 5 6 7
13 4 10 -3 14 6 15 35 2 36 0 39 -21 34 -13 -4 -18 -2 -14 3 5 5 14 9 20 9 7
0 12 14 12 30 l0 30 -212 0 c-138 0 -209 -3 -205 -10 3 -5 -1 -5 -9 1 -18 15
-191 14 -201 0 -5 -7 -8 -7 -8 2 0 6 -7 12 -15 12 -8 0 -15 -5 -15 -11 0 -6
-5 -7 -12 -2 -21 12 -368 11 -368 -2z"/>
<path d="M1233 2626 c-59 -19 -104 -49 -153 -102 -69 -75 -85 -121 -85 -249 0
-101 2 -115 28 -168 35 -71 109 -146 174 -178 36 -18 69 -25 133 -27 107 -5
177 19 249 84 203 182 162 512 -77 622 -69 31 -201 40 -269 18z"/>
<path d="M2228 2455 c-2 -2 -18 -5 -36 -7 -29 -2 -30 -3 -15 -20 9 -10 28 -18
42 -19 14 0 20 -3 13 -6 -25 -10 21 -31 61 -28 21 2 37 -1 37 -7 0 -6 -13 -8
-30 -6 -16 3 -30 2 -30 -2 0 -14 69 -71 88 -73 13 -1 18 -5 13 -10 -6 -6 -2
-21 11 -37 18 -25 26 -28 68 -25 26 2 62 0 81 -5 25 -6 16 -7 -38 -6 -40 1
-73 1 -73 -2 0 -14 23 -42 35 -42 9 0 12 -6 9 -15 -4 -10 0 -15 15 -15 12 0
21 6 21 15 0 8 7 15 16 15 14 0 14 -3 4 -15 -10 -13 -9 -15 11 -16 13 -1 29 0
34 1 27 7 110 0 113 -9 8 -25 17 -8 19 34 2 44 -2 50 -34 46 -7 -1 -13 2 -13
7 0 5 10 9 23 8 17 -1 23 5 25 27 3 23 0 27 -20 27 -13 0 -30 6 -37 13 -11 10
-13 9 -9 -3 5 -12 -2 -15 -33 -12 -22 2 -39 8 -39 14 0 6 13 7 31 3 20 -5 29
-3 25 3 -7 12 37 10 47 -3 5 -6 7 -1 5 10 -2 14 -11 20 -31 21 -38 1 -47 14
-10 14 22 0 37 -8 50 -25 l18 -26 2 45 c2 39 0 44 -15 39 -16 -5 -16 -5 -1 8
22 18 21 86 -1 80 -42 -9 -120 -9 -120 2 0 8 -4 7 -12 -1 -15 -15 -42 -16 -32
-1 4 7 -1 7 -16 -1 -18 -10 -21 -9 -15 1 6 9 3 10 -8 6 -10 -4 -24 -10 -34
-14 -11 -4 -14 -3 -8 6 6 10 3 11 -14 2 -15 -8 -32 -9 -56 -2 -19 5 -35 6 -35
2 0 -9 -72 -7 -87 2 -6 4 -12 4 -15 2z"/>
<path d="M120 2028 c0 -9 -17 -12 -60 -10 -50 3 -60 1 -60 -12 0 -11 9 -16 30
-16 17 0 30 -4 30 -10 0 -5 -13 -7 -30 -3 -19 3 -30 1 -30 -6 0 -6 5 -11 12
-11 9 0 9 -3 0 -12 -18 -18 -15 -46 5 -51 17 -4 17 -5 1 -6 -10 0 -18 -8 -18
-17 0 -9 5 -12 13 -8 10 6 10 4 0 -7 -22 -22 -14 -38 20 -42 l32 -4 -33 -1
c-21 -1 -32 -7 -30 -14 6 -16 34 -18 51 -5 19 15 32 57 18 57 -6 0 -11 5 -11
10 0 6 3 9 8 9 24 -4 33 3 27 21 -4 14 -2 20 6 18 7 -2 14 7 15 19 1 14 -3 20
-12 16 -8 -3 -14 0 -14 6 0 6 10 11 23 11 28 0 53 46 36 67 -14 16 -29 17 -29
1z"/>
<path d="M2551 2027 c-17 -17 -14 -25 17 -42 15 -9 19 -14 10 -11 -10 3 -18 1
-18 -4 0 -6 11 -10 24 -10 28 0 42 -15 25 -26 -7 -4 -9 -3 -5 4 4 6 -1 10 -12
9 -18 -1 -18 -3 -4 -39 8 -20 19 -35 23 -32 5 3 9 -6 9 -21 0 -17 7 -29 23
-35 16 -6 17 -9 5 -9 -16 -1 -16 -4 -1 -46 8 -25 19 -45 24 -45 5 0 7 -10 4
-22 -3 -13 1 -54 9 -93 l14 -70 0 73 c0 39 -4 72 -9 72 -5 0 -9 5 -9 11 0 5 5
7 10 4 6 -4 10 10 10 34 0 40 -6 46 -37 42 -7 -1 -13 3 -13 9 0 6 10 10 23 8
22 -3 22 -1 23 120 1 112 -5 148 -21 122 -3 -5 -11 -10 -16 -10 -6 0 -8 4 -5
8 6 10 -30 9 -40 -1 -4 -3 -12 -3 -18 0 -18 12 -33 12 -45 0z"/>
<path d="M1210 1334 c-105 -38 -177 -116 -212 -226 -22 -73 -23 -137 -2 -209
33 -113 100 -187 230 -252 83 -42 98 -58 97 -102 -2 -64 -102 -170 -240 -255
-29 -17 -53 -34 -53 -37 0 -8 86 -164 103 -187 14 -19 15 -19 68 3 185 80 359
249 440 427 63 139 88 361 58 506 -29 138 -117 256 -231 312 -73 36 -190 45
-258 20z"/>
<path d="M14 1012 c-6 -4 -11 -40 -11 -79 l0 -73 28 0 c36 0 46 -16 14 -22
-13 -3 -22 -1 -19 3 3 5 -2 9 -11 9 -12 0 -15 -9 -12 -37 3 -36 4 -38 37 -36
19 1 38 -4 42 -10 6 -9 8 -9 8 1 0 6 5 12 12 12 9 0 9 -3 0 -12 -14 -14 -45
-20 -36 -7 3 5 0 9 -5 9 -6 0 -11 -4 -11 -9 0 -5 -9 -7 -20 -4 -24 6 -40 -25
-19 -38 11 -7 11 -9 1 -9 -8 0 -12 -5 -10 -11 4 -13 98 -19 98 -7 0 10 23 6
31 -5 3 -5 9 1 12 12 3 12 0 27 -7 34 -7 7 -16 25 -19 40 -4 15 -11 26 -15 26
-19 -3 -26 2 -13 10 10 7 12 13 5 23 -6 7 -16 32 -24 56 -8 27 -18 41 -26 38
-7 -3 -18 2 -24 10 -10 11 -9 14 8 14 18 0 20 3 12 31 -11 38 -13 40 -26 31z"/>
<path d="M2679 1012 c-13 -2 -40 -80 -41 -119 0 -5 -5 -14 -11 -22 -9 -11 -9
-13 0 -8 6 4 14 3 17 -2 3 -5 -3 -11 -14 -14 -27 -7 -49 -55 -30 -67 8 -5 18
-6 23 -3 5 3 8 0 5 -8 -3 -8 -15 -14 -28 -14 -16 0 -30 -10 -43 -32 -10 -18
-15 -33 -10 -34 44 -6 83 -3 83 5 0 6 5 5 12 -2 17 -17 26 -15 30 6 3 15 5 14
9 -4 6 -19 2 -20 -63 -19 -75 1 -108 -12 -105 -44 1 -21 42 -32 73 -20 11 4
13 8 6 8 -15 1 -6 21 9 21 6 0 8 -4 5 -8 -12 -20 11 -32 42 -23 23 7 32 6 32
-2 0 -9 -28 -12 -95 -12 -53 0 -99 -2 -103 -5 -28 -19 -57 -90 -30 -74 7 5 8
3 4 -5 -5 -7 -14 -10 -22 -7 -7 3 -27 -12 -46 -37 -18 -23 -41 -48 -50 -55
-22 -16 -24 -36 -2 -28 9 3 12 2 9 -5 -4 -5 -15 -7 -24 -4 -20 6 -56 -28 -46
-44 3 -6 0 -9 -8 -5 -20 7 -80 -45 -73 -63 4 -9 1 -13 -6 -10 -24 8 -98 -39
-98 -61 0 -12 136 -9 164 3 10 4 21 4 25 -2 8 -14 111 -12 111 1 0 6 5 4 10
-4 8 -12 11 -13 19 -1 5 8 11 9 15 3 3 -5 17 -8 31 -7 14 2 25 -1 25 -6 0 -11
1 -11 -258 -11 -147 0 -210 -3 -205 -10 3 -6 1 -8 -5 -4 -6 3 -31 -4 -56 -16
-44 -21 -59 -38 -34 -38 6 0 8 -3 5 -6 -4 -4 -13 -1 -21 5 -11 10 -19 9 -35
-1 -12 -7 -21 -16 -21 -21 0 -4 -4 -6 -8 -3 -5 3 -48 -8 -98 -24 -49 -16 -84
-29 -79 -30 6 -2 14 -2 19 -1 5 1 13 -4 17 -11 7 -10 9 -10 9 0 0 12 58 11 80
-3 5 -3 10 -1 10 5 0 13 60 10 94 -5 16 -7 18 -5 13 9 -5 12 -3 15 6 9 6 -4
22 -6 35 -4 12 1 22 -2 22 -7 0 -12 34 -11 42 2 5 8 13 7 28 -2 12 -7 20 -8
20 -2 0 5 9 10 20 10 11 0 20 -6 20 -12 0 -8 3 -9 8 -3 10 14 155 16 165 1 6
-8 10 -8 14 2 6 16 60 16 66 0 4 -10 6 -9 6 1 1 11 4 11 18 0 11 -10 14 -10 9
-1 -5 8 -1 12 11 13 36 2 68 -3 81 -13 7 -6 12 -6 12 -1 0 5 33 9 73 8 127 -2
123 -5 125 81 l1 74 -97 -2 c-53 -1 -97 2 -97 7 0 5 37 9 82 9 80 -1 82 -1 72
20 -9 19 -9 19 10 -2 22 -25 27 -21 29 26 2 30 0 32 -23 28 -13 -3 -27 0 -30
5 -4 5 1 9 10 9 12 0 15 5 11 18 -6 16 -5 16 8 0 7 -10 16 -18 19 -18 3 0 6
32 6 71 0 65 -2 73 -30 100 -16 16 -25 29 -20 29 5 0 17 -10 25 -22 9 -12 17
-20 17 -18 9 37 6 65 -9 76 -13 9 -19 9 -24 1 -5 -8 -8 -6 -8 6 0 16 10 21 36
18 8 -1 11 33 11 108 0 87 -3 111 -14 116 -8 3 -20 2 -26 -1 -7 -3 -4 1 5 9
10 8 15 17 11 21 -4 4 -1 4 8 1 23 -9 24 124 2 140 -13 10 -13 14 -3 20 9 6
11 4 5 -6 -6 -11 -5 -11 4 -3 19 17 10 80 -10 76z"/>
<path d="M10 670 c-12 -7 -9 -53 5 -63 7 -6 6 -10 -2 -14 -20 -7 -16 -43 5
-44 14 0 14 -2 -3 -9 -11 -5 -14 -9 -7 -11 6 -1 18 -2 25 -3 6 -1 17 1 22 5 6
5 11 0 11 -11 0 -14 -6 -17 -25 -13 -14 2 -28 6 -33 9 -5 3 -7 -14 -6 -38 2
-26 8 -43 16 -43 6 0 12 -4 11 -10 0 -5 -7 -9 -16 -7 -10 2 -14 -3 -11 -15 2
-13 12 -17 35 -17 18 1 31 -2 28 -6 -2 -4 -17 -6 -34 -5 l-29 2 2 -93 c0 -51
4 -95 7 -98 3 -4 18 -2 33 3 15 6 26 7 26 1 0 -5 10 -6 23 -3 12 2 29 4 37 4
85 -6 112 -3 104 12 -4 6 1 5 10 -4 18 -16 71 -14 60 2 -6 10 25 1 42 -12 6
-5 14 -6 17 -2 4 3 7 0 7 -7 0 -9 6 -8 20 5 19 17 20 17 20 -1 0 -12 3 -15 8
-7 4 6 20 10 35 9 15 -2 27 1 27 6 0 5 8 5 18 -1 11 -6 24 -6 34 0 11 6 19 6
23 -1 3 -6 -1 -12 -9 -15 -9 -3 -23 -7 -31 -10 -8 -2 -15 1 -15 8 0 7 -3 8 -8
2 -11 -15 -32 -17 -48 -4 -8 6 -14 7 -14 2 0 -13 -193 -11 -202 2 -5 7 -8 7
-8 0 0 -12 -150 -12 -170 0 -9 5 -11 4 -6 -3 5 -8 -1 -11 -16 -9 -20 2 -23 -3
-26 -34 l-3 -37 48 4 c87 7 123 5 123 -7 0 -9 -34 -14 -55 -9 -11 3 -11 3 -73
-1 -43 -2 -43 -3 -40 -37 2 -21 9 -37 18 -39 13 -4 13 -3 0 6 -12 9 -10 11 13
11 15 0 27 -4 27 -10 0 -5 7 -10 15 -10 8 0 15 4 15 9 0 9 8 11 55 11 11 0 30
0 43 0 16 0 21 -4 16 -13 -5 -9 -4 -9 6 0 9 9 19 9 33 2 15 -9 18 -8 12 2 -6
9 1 11 30 6 l37 -6 -18 21 -19 22 26 -20 c15 -10 25 -22 23 -25 -2 -3 3 -6 11
-6 8 0 12 4 9 9 -3 4 13 7 36 6 22 -1 43 -5 46 -10 3 -4 16 -1 29 8 14 9 25
11 29 5 4 -5 23 -7 43 -4 29 5 35 3 28 -8 -8 -12 -6 -12 8 0 14 11 20 11 34 0
11 -10 14 -10 9 -1 -4 6 -3 12 1 12 5 0 15 -6 22 -12 10 -9 12 -9 7 -1 -8 15
36 14 46 -2 5 -6 8 -6 8 3 0 8 15 12 43 11 32 0 37 -2 22 -9 -15 -6 -11 -8 16
-7 21 1 35 5 33 9 -8 12 99 13 112 1 10 -10 13 -10 17 0 4 9 8 9 15 -2 8 -11
11 -11 16 0 5 11 7 11 12 2 3 -7 13 -13 22 -13 15 0 15 2 2 10 -13 8 -13 10 2
10 9 0 20 -4 23 -10 3 -5 14 -9 23 -9 15 1 15 2 -1 6 -9 2 -15 8 -12 13 6 10
-71 24 -101 18 -10 -1 -18 2 -17 8 2 12 -76 38 -109 37 -10 0 -14 5 -11 13 3
8 -1 14 -10 14 -8 0 -35 12 -61 26 -25 14 -51 22 -57 18 -7 -4 -9 -3 -6 3 5 7
-12 10 -48 9 -30 -1 -55 1 -55 5 0 11 38 21 50 14 5 -3 10 -3 10 2 0 17 -97
74 -116 67 -15 -5 -16 -4 -4 5 13 9 12 12 -5 24 -10 8 -25 13 -32 10 -9 -3
-11 0 -8 10 10 24 -54 41 -85 22 -13 -8 -13 -7 -1 9 8 9 20 15 28 12 7 -3 13
-2 13 3 0 18 -27 30 -68 29 -38 0 -41 -2 -31 -20 8 -15 14 -17 24 -8 10 8 15
8 21 -1 4 -7 3 -9 -4 -5 -6 3 -13 2 -17 -4 -10 -16 -21 -12 -33 14 -13 30 -8
36 36 36 34 0 34 1 18 19 -9 10 -25 17 -35 14 -11 -3 -18 1 -18 11 0 8 4 13 9
10 21 -13 5 15 -25 44 -32 31 -55 43 -42 22 3 -5 -1 -10 -9 -10 -9 0 -16 4
-16 9 0 10 -22 8 -61 -4 -10 -4 -19 -2 -19 3 0 5 -7 9 -15 9 -8 0 -15 -4 -15
-8 0 -4 -9 -5 -20 -2 -11 3 -20 10 -20 15 0 6 9 8 19 5 10 -2 25 -1 32 4 7 4
20 4 29 -1 21 -11 62 -1 54 12 -4 6 2 5 14 -1 31 -16 33 -14 14 19 -9 16 -22
30 -29 30 -7 0 -10 7 -7 15 4 8 -1 17 -10 21 -9 3 -14 10 -11 14 12 19 -31 35
-97 35 -39 0 -74 -2 -78 -5z"/>
</g>
</svg>
